<?xml version="1.0" encoding="UTF-8"?>
<svg id="Layer_1" xmlns="http://www.w3.org/2000/svg" version="1.1" viewBox="0 0 192 192">
  <!-- Generator: Adobe Illustrator 29.7.1, SVG Export Plug-In . SVG Version: 2.1.1 Build 8)  -->
  <defs>
    <style>
      .st0 {
        fill: #ffc107;
      }

      .st1 {
        fill: #3f3f3f;
        font-family: BeVietnamPro-Italic, 'Be Vietnam Pro';
        font-size: 58.7px;
        font-style: italic;
      }

      .st2 {
        fill: #fff;
      }

      .st3 {
        fill: #2196f3;
      }

      .st4 {
        fill: #4caf50;
      }

      .st5 {
        fill: #455a64;
      }

      .st6 {
        fill: #fafafa;
      }
    </style>
  </defs>
  <path class="st3" d="M96,96v96h-60c-19.9,0-36-16.1-36-36v-60h96Z"/>
  <path class="st5" d="M192,96v60c0,19.9-16.1,36-36,36h-60v-96h96Z"/>
  <path class="st0" d="M192,36v60h-96V0h60c19.9,0,36,16.1,36,36Z"/>
  <path class="st4" d="M96,0v96H0v-60C0,16.1,16.1,0,36,0h60Z"/>
  <g>
    <path class="st6" d="M76,56H28c-2.2,0-4-1.8-4-4s1.8-4,4-4h48c2.2,0,4,1.8,4,4s-1.8,4-4,4Z"/>
    <path class="st6" d="M52,80c-2.2,0-4-1.8-4-4V28c0-2.2,1.8-4,4-4s4,1.8,4,4v48c0,2.2-1.8,4-4,4Z"/>
    <path class="st6" d="M164,56h-40c-2.2,0-4-1.8-4-4s1.8-4,4-4h40c2.2,0,4,1.8,4,4s-1.8,4-4,4Z"/>
    <path class="st6" d="M68,168c-1.2,0-2.4-.5-3.1-1.5l-32-40c-1.4-1.7-1.1-4.2.6-5.6s4.2-1.1,5.6.6h0l32,40c1.4,1.7,1.1,4.2-.6,5.6-.7.6-1.6.9-2.5.9Z"/>
    <path class="st6" d="M36,168c-2.2,0-4-1.8-4-4,0-.9.3-1.8.9-2.5l32-40c1.4-1.7,3.9-2,5.6-.6s2,3.9.6,5.6l-32,40c-.8.9-1.9,1.5-3.1,1.5Z"/>
    <path class="st6" d="M156,168c-1.4,0-2.7-.7-3.4-1.9l-24-40c-1.1-1.9-.4-4.4,1.5-5.5,1.9-1.1,4.2-.5,5.4,1.3l24,40c1.1,1.9.5,4.4-1.4,5.5-.6.4-1.3.6-2.1.6Z"/>
  </g>
  <rect class="st2" x="-4.9" y="66.2" width="201.8" height="59.5"/>
  <text class="st1" transform="translate(41 117.4)"><tspan x="0" y="0">RCP</tspan></text>
</svg>