<?xml version="1.0" encoding="UTF-8"?>
<svg id="Layer_1" xmlns="http://www.w3.org/2000/svg" version="1.1" viewBox="0 0 152 152">
  <!-- Generator: Adobe Illustrator 29.7.1, SVG Export Plug-In . SVG Version: 2.1.1 Build 8)  -->
  <defs>
    <style>
      .st0 {
        fill: #ffc107;
      }

      .st1 {
        fill: #fff;
      }

      .st2 {
        fill: #2196f3;
      }

      .st3 {
        fill: #4caf50;
      }

      .st4, .st5 {
        isolation: isolate;
      }

      .st6 {
        fill: #455a64;
      }

      .st5 {
        fill: #3f3f3f;
        font-family: BeVietnamPro-Italic, 'Be Vietnam Pro';
        font-size: 46.4px;
        font-style: italic;
      }

      .st7 {
        fill: #fafafa;
      }
    </style>
  </defs>
  <path class="st2" d="M76,76v76H28.5C12.8,151.9,0,139.2,0,123.4v-47.5h76Z"/>
  <path class="st6" d="M152,76v47.5c0,15.7-12.7,28.5-28.5,28.5h-47.5v-76h76Z"/>
  <path class="st0" d="M152,28.5v47.5h-76V0h47.5c15.7,0,28.5,12.7,28.5,28.5Z"/>
  <path class="st3" d="M76,0v76H0V28.5C0,12.7,12.8,0,28.5,0h47.5Z"/>
  <g>
    <path class="st7" d="M60.2,44.3H22.2c-1.7,0-3.2-1.4-3.2-3.2s1.4-3.2,3.2-3.2h38c1.7,0,3.2,1.4,3.2,3.2s-1.4,3.2-3.2,3.2Z"/>
    <path class="st7" d="M41.2,63.3c-1.7,0-3.2-1.4-3.2-3.2V22.2c0-1.7,1.4-3.2,3.2-3.2s3.2,1.4,3.2,3.2v38c0,1.7-1.4,3.2-3.2,3.2Z"/>
    <path class="st7" d="M129.8,44.3h-31.6c-1.7,0-3.2-1.4-3.2-3.2s1.4-3.2,3.2-3.2h31.6c1.7,0,3.2,1.4,3.2,3.2s-1.4,3.2-3.2,3.2Z"/>
    <path class="st7" d="M53.8,132.9c-.9,0-1.9-.4-2.5-1.2l-25.3-31.6c-1.1-1.3-.9-3.3.5-4.4,1.3-1.1,3.3-.9,4.4.5h0l25.3,31.6c1.1,1.3.9,3.3-.5,4.4-.6.5-1.3.7-2,.7Z"/>
    <path class="st7" d="M28.5,132.9c-1.7,0-3.2-1.4-3.2-3.2s.2-1.4.7-2l25.3-31.6c1.1-1.3,3.1-1.6,4.4-.5s1.6,3.1.5,4.4l-25.3,31.6c-.6.7-1.5,1.2-2.5,1.2Z"/>
    <path class="st7" d="M123.5,132.9c-1.1,0-2.1-.6-2.7-1.5l-19-31.6c-.9-1.5-.3-3.5,1.2-4.4s3.3-.4,4.3,1l19,31.6c.9,1.5.4,3.5-1.1,4.4-.5.3-1,.5-1.7.5h0Z"/>
  </g>
  <rect class="st1" x="-3.8" y="52.4" width="159.7" height="47.1"/>
  <g class="st4">
    <text class="st5" transform="translate(32.5 92.9)"><tspan x="0" y="0">RCP</tspan></text>
  </g>
</svg>