<?xml version="1.0" encoding="UTF-8"?>
<svg id="Layer_1" xmlns="http://www.w3.org/2000/svg" version="1.1" viewBox="0 0 512 512">
  <!-- Generator: Adobe Illustrator 29.7.1, SVG Export Plug-In . SVG Version: 2.1.1 Build 8)  -->
  <defs>
    <style>
      .st0 {
        fill: #ffc107;
      }

      .st1 {
        fill: #fff;
      }

      .st2 {
        fill: #2196f3;
      }

      .st3 {
        fill: #4caf50;
      }

      .st4 {
        fill: #455a64;
      }

      .st5 {
        fill: #3f3f3f;
        font-family: BeVietnamPro-Italic, 'Be Vietnam Pro';
        font-size: 156.6px;
        font-style: italic;
      }

      .st6 {
        fill: #fafafa;
      }
    </style>
  </defs>
  <path class="st2" d="M256.2,256v256H96.2c-53,0-95.9-43-96-96v-160h256Z"/>
  <path class="st4" d="M512.2,256v160c0,53-43,95.9-96,96h-160v-256h256Z"/>
  <path class="st0" d="M512.2,96v160h-256V0h160c53,0,95.9,43,96,96Z"/>
  <path class="st3" d="M256.2,0v256H.2V96C.3,43,43.2,0,96.2,0h160Z"/>
  <g>
    <path class="st6" d="M202.9,149.3h-128c-5.9,0-10.7-4.8-10.7-10.7s4.8-10.7,10.7-10.7h128c5.9,0,10.7,4.8,10.7,10.7s-4.8,10.7-10.7,10.7Z"/>
    <path class="st6" d="M138.9,213.3c-5.9,0-10.7-4.8-10.7-10.7v-128c0-5.9,4.8-10.7,10.7-10.7s10.7,4.8,10.7,10.7v128c0,5.9-4.8,10.7-10.7,10.7Z"/>
    <path class="st6" d="M437.5,149.3h-106.7c-5.9,0-10.7-4.8-10.7-10.7s4.8-10.7,10.7-10.7h106.7c5.9,0,10.7,4.8,10.7,10.7s-4.8,10.7-10.7,10.7Z"/>
    <path class="st6" d="M181.5,447.9c-3.2,0-6.3-1.5-8.3-4l-85.3-106.7c-3.7-4.6-2.9-11.3,1.7-15s11.3-2.9,15,1.7h0l85.3,106.7c3.7,4.6,2.9,11.3-1.7,15-1.9,1.5-4.2,2.3-6.6,2.3Z"/>
    <path class="st6" d="M96.2,447.9c-5.9,0-10.7-4.8-10.7-10.7,0-2.4.8-4.8,2.3-6.7l85.3-106.7c3.7-4.6,10.4-5.3,15-1.7s5.3,10.4,1.7,15l-85.3,106.7c-2,2.5-5.1,4-8.3,4Z"/>
    <path class="st6" d="M416.2,447.9c-3.7,0-7.2-2-9.2-5.2l-64-106.7c-2.9-5.1-1.2-11.6,3.9-14.6,5-2.9,11.3-1.3,14.4,3.6l64,106.7c3,5,1.4,11.6-3.6,14.6-1.7,1-3.6,1.5-5.5,1.5Z"/>
  </g>
  <rect class="st1" x="-12.8" y="176.6" width="537.9" height="158.7"/>
  <text class="st5" transform="translate(109.5 312.9)"><tspan x="0" y="0">RCP</tspan></text>
</svg>