<?xml version="1.0" encoding="UTF-8"?>
<svg id="Layer_1" xmlns="http://www.w3.org/2000/svg" version="1.1" xmlns:xlink="http://www.w3.org/1999/xlink" viewBox="0 0 3582.8 595.9">
  <!-- Generator: Adobe Illustrator 29.7.1, SVG Export Plug-In . SVG Version: 2.1.1 Build 8)  -->
  <defs>
    <style>
      .st0 {
        fill: url(#linear-gradient2);
      }

      .st1 {
        fill: #21ac4b;
      }

      .st2 {
        fill: url(#linear-gradient10);
      }

      .st3 {
        fill: #e7262b;
      }

      .st4 {
        fill: #beaf31;
      }

      .st5 {
        fill: #f5ea19;
      }

      .st6 {
        fill: #565555;
      }

      .st7, .st8 {
        fill: #fff;
      }

      .st9 {
        fill: url(#linear-gradient1);
      }

      .st10 {
        fill: url(#linear-gradient9);
      }

      .st11 {
        fill: #4372b4;
      }

      .st8 {
        fill-rule: evenodd;
      }

      .st12 {
        fill: url(#linear-gradient8);
      }

      .st13 {
        fill: url(#linear-gradient11);
      }

      .st14, .st15 {
        fill: none;
      }

      .st16 {
        fill: #b42226;
      }

      .st17 {
        fill: #9bc3d4;
      }

      .st18 {
        fill: #bfd8e8;
      }

      .st19 {
        fill: #231f20;
      }

      .st20 {
        fill: #229848;
      }

      .st21 {
        fill: #545452;
      }

      .st22 {
        fill: url(#linear-gradient7);
      }

      .st23 {
        fill: url(#linear-gradient4);
      }

      .st24 {
        fill: #cfb62b;
      }

      .st25 {
        fill: #da2328;
      }

      .st26 {
        fill: url(#linear-gradient5);
      }

      .st27 {
        fill: url(#linear-gradient3);
      }

      .st15 {
        stroke: #000;
        stroke-miterlimit: 10;
        stroke-width: 8.3px;
      }

      .st28 {
        fill: #1e1717;
      }

      .st29 {
        fill: #2d2d2c;
      }

      .st30 {
        fill: url(#linear-gradient6);
      }

      .st31 {
        fill: url(#linear-gradient);
      }

      .st32 {
        clip-path: url(#clippath);
      }

      .st33 {
        fill: #b39530;
      }

      .st34 {
        fill: #eabe1d;
      }
    </style>
    <linearGradient id="linear-gradient" x1="487.3" y1="1251.6" x2="490.7" y2="1031.4" gradientTransform="translate(0 1486.7) scale(1 -1)" gradientUnits="userSpaceOnUse">
      <stop offset="0" stop-color="#f3e80a"/>
      <stop offset=".8" stop-color="#9cc834"/>
      <stop offset="1" stop-color="#81bf42"/>
    </linearGradient>
    <linearGradient id="linear-gradient1" x1="262.4" y1="1139.9" x2="263.8" y2="1051.4" gradientTransform="translate(0 1486.7) scale(1 -1)" gradientUnits="userSpaceOnUse">
      <stop offset="0" stop-color="#b37a2c"/>
      <stop offset="1" stop-color="#f5b123"/>
    </linearGradient>
    <linearGradient id="linear-gradient2" x1="252.7" y1="1139.9" x2="253.9" y2="1063.8" gradientTransform="translate(0 1486.7) scale(1 -1)" gradientUnits="userSpaceOnUse">
      <stop offset="0" stop-color="#b37a2c"/>
      <stop offset="1" stop-color="#f5b123"/>
    </linearGradient>
    <linearGradient id="linear-gradient3" x1="239.7" y1="1140" x2="240.5" y2="1087" gradientTransform="translate(0 1486.7) scale(1 -1)" gradientUnits="userSpaceOnUse">
      <stop offset="0" stop-color="#b37a2c"/>
      <stop offset="1" stop-color="#f5b123"/>
    </linearGradient>
    <linearGradient id="linear-gradient4" x1="332.8" y1="1140.9" x2="335.3" y2="980.7" gradientTransform="translate(0 1486.7) scale(1 -1)" gradientUnits="userSpaceOnUse">
      <stop offset="0" stop-color="#b37a2c"/>
      <stop offset="1" stop-color="#f5b123"/>
    </linearGradient>
    <linearGradient id="linear-gradient5" x1="244.7" y1="1228.2" x2="245.9" y2="1151.3" gradientTransform="translate(0 1486.7) scale(1 -1)" gradientUnits="userSpaceOnUse">
      <stop offset="0" stop-color="#f4bab0"/>
      <stop offset=".7" stop-color="#ee7359"/>
      <stop offset="1" stop-color="#ec502e"/>
    </linearGradient>
    <linearGradient id="linear-gradient6" x1="262.4" y1="1241.1" x2="263.8" y2="1151.4" gradientTransform="translate(0 1486.7) scale(1 -1)" gradientUnits="userSpaceOnUse">
      <stop offset="0" stop-color="#f4bab0"/>
      <stop offset=".7" stop-color="#ee7359"/>
      <stop offset="1" stop-color="#ec502e"/>
    </linearGradient>
    <linearGradient id="linear-gradient7" x1="271.6" y1="1254" x2="273.2" y2="1151.4" gradientTransform="translate(0 1486.7) scale(1 -1)" gradientUnits="userSpaceOnUse">
      <stop offset="0" stop-color="#f4bab0"/>
      <stop offset=".7" stop-color="#ee7359"/>
      <stop offset="1" stop-color="#ec502e"/>
    </linearGradient>
    <linearGradient id="linear-gradient8" x1="338.1" y1="1310.3" x2="340.6" y2="1150.5" gradientTransform="translate(0 1486.7) scale(1 -1)" gradientUnits="userSpaceOnUse">
      <stop offset="0" stop-color="#f4bab0"/>
      <stop offset=".7" stop-color="#ee7359"/>
      <stop offset="1" stop-color="#ec502e"/>
    </linearGradient>
    <linearGradient id="linear-gradient9" x1="1051.2" y1="1183.8" x2="1520" y2="1183.8" gradientTransform="translate(0 1486.7) scale(1 -1)" gradientUnits="userSpaceOnUse">
      <stop offset="0" stop-color="#000"/>
      <stop offset=".5" stop-color="#ea2427"/>
      <stop offset="1" stop-color="#fab516"/>
    </linearGradient>
    <linearGradient id="linear-gradient10" x1="3423.5" y1="1069.5" x2="3423.5" y2="1264.5" gradientTransform="translate(0 1486.7) scale(1 -1)" gradientUnits="userSpaceOnUse">
      <stop offset="0" stop-color="#0f91d0"/>
      <stop offset="1" stop-color="#07ade0"/>
    </linearGradient>
    <linearGradient id="linear-gradient11" x1="2151.8" y1="1153.1" x2="2186.3" y2="1016.6" gradientTransform="translate(0 1486.7) scale(1 -1)" gradientUnits="userSpaceOnUse">
      <stop offset="0" stop-color="#e7262b"/>
      <stop offset=".4" stop-color="#9d191d"/>
      <stop offset=".7" stop-color="#2d0708"/>
      <stop offset=".9" stop-color="#000"/>
    </linearGradient>
    <clipPath id="clippath">
      <circle class="st14" cx="3185" cy="320.6" r="97.6"/>
    </clipPath>
  </defs>
  <g>
    <ellipse class="st7" cx="402.9" cy="340.7" rx="179.2" ry="174.8"/>
    <path class="st31" d="M408,475.2v-155.7c.5,1.1,1,2.3,1.6,3.4,2.6,4.8,6.8,8.9,12,10.5,1.6.5,3.2.8,4.8,1.1,3.5.6,6.3,1.9,9.4,3.6,3,1.7,5.6,3.7,7.9,6.3,3.6,4,6.4,8.9,7.6,14.2,1.1,4.9,1.3,9.9,1,14.8-.3,3.9-.9,7.9-1.8,11.7-.4,1.6-.8,3.2-1.3,4.7-3.1,8.1-7.7,27.4-11.1,42.8h0c-8.2,5-15.1,11.9-20.6,19.7-4.3,6.2-7.4,14.7-9.5,22.9ZM467.1,362.4c3-4.4,6.2-8.7,10.3-12.4,3.3-3,7-5.6,9.8-9.1,3.8-4.8,5.7-10.8,6.9-16.7,1.5-7.2,3.4-14.5,4.2-21.7,4.2-40.1-17.9-50.1-31.1-49-8.8.7-43.3,2.7-59.3-24.6v79.8c.7,3.5,1.6,6.9,2.9,10.2.9,2.4,1.6,4.9,3.1,7,1.6,2.3,3.9,3.6,6.6,4.3,1.7.5,3.5,1.1,5.3,1.5,6.5,1.6,12.2,4.8,17.3,8.9,17,13.6,13.5,36.1,13.5,36.1.2-1,2-2.7,2.7-3.6,1-1.3,1.9-2.5,2.8-3.8,1.7-2.3,3.4-4.7,5-7h0ZM568.5,333.9c-2.3,10.4-7.5,22.3-19.6,23.3-8.8.7-17.6-2.5-25.5-6-5.8-2.6-13.2-4.2-22.3-4.3h-2.3c-6.1.5-11.7,3-16.7,6.6h0c-14.9,10.8-23.9,30.8-23.9,30.8,0,0-10.5,19.3-14.1,44.8,10.8-5.1,22-6.5,34.2-7.2,2.6-.1,5.2-.3,7.9-.6,19.3-1.9,38.8-8.2,54.4-19.8,8.8-6.6,21.9-18.7,28.7-30.3,2-10.1,3-20.5,3-31.1s-.7-16.9-2-25.1c0,6.3-.5,12.5-1.9,18.7h0v.2h0ZM408.2,210.8s.4,40.7,57.3,37.2c36.2-2.3,43.7,46.6,34.8,92.3,7.3,0,14.8,1.9,21.5,4.4,4.4,1.6,8.7,3.5,12.6,6.1,2.8,1.8,5.6,3.8,8.9,4.4,3.5.6,7.1-.3,10.1-2.2,13.6-8.5,15.8-27.8,15.8-43.9-14.7-74.5-81-131.2-161.3-133.4v32.4l.2,2.8h.1ZM542.8,405c-15.5,11.6-34.2,18.8-53.5,20.7-2.6.3-5.2.4-7.9.6-13.5.8-26,2.4-38,9.2-.3.1-.6.3-.8.5-2.1,1.2-4.2,2.6-6.1,4.1-6.2,4.6-11.5,10.2-15.9,16.5-5.9,8.5-10.6,18.5-12.6,28.6v20c77.6-2.1,142.1-55.2,159.6-126-6.8,9.9-15.2,18.7-24.8,25.9h0Z"/>
    <g>
      <path class="st9" d="M264.9,346.8h-3.7v83.2c1.2,1.8,2.4,3.6,3.7,5.3v-88.5Z"/>
      <path class="st0" d="M249.7,409.9c2.1,4.5,4.5,8.8,7,13v-76.1h-7v63.1h0Z"/>
      <path class="st27" d="M245.3,346.8h-11.2c.7,18.6,4.6,36.4,11.2,52.9v-52.9Z"/>
      <path class="st23" d="M393.1,346.8v142.1h-4.5v-142.1h-4.5v126.2h-4.5v-126.2h-2.8v149h-4.5v-149h-6.5v108.4h-4.5v-108.4h-3.2v113.8h-4.5v-113.8h-4.9v93.9h-4.5v-93.9h-9.4v101.5h-4.5v-101.5h-3.3v109.9h-4.5v-109.9h-7.8v96.7h-4.5v-96.7h-2.4v82.3h-4.5v-82.3h-9v96.1h-4.5v-96.1h-2.4v86.8h-4.5v-86.8h-3.3v86.8h-4.5v-86.8h-6.2v94.4c30.1,37.8,76.7,62.5,129.3,63.8v-158.2h-5.6.5,0Z"/>
    </g>
    <g>
      <path class="st26" d="M256.5,258.4c-2.4,4-4.6,8.2-6.6,12.4v64.5h-4.6v-53.9c-6.7,16.8-10.6,35-11.3,53.9h22.6v-76.9h0Z"/>
      <path class="st30" d="M261.2,335.3h3.7v-89.7c-1.3,1.7-2.5,3.5-3.7,5.3v84.4Z"/>
      <path class="st22" d="M275.3,232.6c-2,2.2-3.9,4.5-5.8,6.9v95.8h5.8v-102.7h0Z"/>
      <path class="st12" d="M287.8,220v115.3h-4.6v-110.9c-1.1,1.1-2.1,2.1-3.2,3.2v107.7h118.6v-159.8c-42.8,1.1-81.6,17.7-110.8,44.4h0ZM294.8,335.3h-4.6v-105.8h4.6v105.8ZM308.1,335.1h-4.6v-118.5h4.6v118.5ZM315.2,335.1h-4.6v-104.4h4.6v104.4ZM327.5,335.1h-4.6v-91.8h4.6v91.8ZM335.2,335.1h-4.6v-99.7h4.6v99.7ZM349.1,335.1h-4.6v-107.6h4.6v107.6ZM358.4,335.1h-4.6v-87.5h4.6v87.5ZM366,335.1h-4.6v-92.8h4.6v92.8ZM378,335.1h-5.5v-50.6h5.5v50.6ZM384.7,335.1h-5.5v-75h5.5v75ZM393.4,335.1h-5.5v-59.1h5.5v59.1Z"/>
    </g>
    <g>
      <path class="st7" d="M100,363.8c-5.2,0-9.5-4.5-9.5-9.8v-23.3c0-2.9-2.2-5.2-4.9-5.2s-4.5,2.3-4.5,5.2v23.3c0,.4,0,1.3-.4,2.3-1.1,4.4-4.9,7.5-9.3,7.5s-9.5-4.4-9.5-9.8v-38.5c0-5.4,4.3-9.8,9.5-9.8s4,.7,5.6,1.8c2.8-1.2,5.7-1.8,8.7-1.8,13.2,0,23.9,11.2,23.9,25v23.3c0,5.4-4.2,9.8-9.4,9.8,0,0-.2,0-.2,0Z"/>
      <path class="st7" d="M155.7,363.8c-13.1,0-23.8-11.2-23.8-25v-23.3c0-5.3,4.4-9.8,9.5-9.8s9.5,4.4,9.5,9.8v23.3c0,3,2.1,5.3,4.7,5.3s5-2.4,5-5.4v-23.3c0-5.4,4.2-9.8,9.4-9.8s9.6,4.6,9.6,9.8v23.3c0,13.8-10.8,25-24.1,25h.2Z"/>
      <path class="st7" d="M265.1,363.8c-5.2,0-9.5-4.4-9.5-9.8v-38.5c0-5.4,4.3-9.7,9.5-9.7s5.2,1.1,7,3c3.6-2,7.4-3,11.2-3h.4c5.3,0,9.5,4.3,9.5,9.7s-4.3,9.8-9.5,9.8-2.1.4-2.6.8c-.1,0-.2.2-.3.3-1,.7-2,1.7-2.8,3.2,0,0-.1.2-.2.3-1.5,2.1-2.4,4.8-2.9,6.3v17.8c0,5.4-4.4,9.8-9.7,9.8h-.1Z"/>
      <path class="st7" d="M219.8,363.8c-8.2,0-14.9-6.7-14.9-15v-21.5c-4.4-.9-7.7-4.9-7.7-9.5s3.3-8.7,7.7-9.6v-9c0-5.4,4.4-9.8,9.8-9.8s9.7,4.3,9.7,9.8v9.1c4.3,1.1,7.5,4.9,7.5,9.5s-3.2,8.4-7.5,9.5v18.1c3,1.7,5.1,4.9,5.1,8.6,0,5.5-4.3,9.8-9.7,9.8h0Z"/>
      <path class="st7" d="M371.1,363.8c-8.2,0-14.9-6.7-14.9-15v-21.5c-4.4-.9-7.7-4.9-7.7-9.5s3.3-8.7,7.7-9.6v-9c0-5.4,4.4-9.8,9.8-9.8s9.7,4.3,9.7,9.8v9.1c4.3,1.1,7.5,4.9,7.5,9.5s-3.2,8.4-7.5,9.5v18.1c3,1.7,5.1,4.9,5.1,8.6,0,5.5-4.3,9.8-9.7,9.8h0Z"/>
      <path class="st7" d="M710.3,363.8c-8.2,0-14.9-6.7-14.9-15v-21.5c-4.4-.9-7.7-4.9-7.7-9.5s3.3-8.7,7.7-9.6v-9c0-5.4,4.4-9.8,9.8-9.8s9.7,4.3,9.7,9.8v9.1c4.3,1.1,7.5,4.9,7.5,9.5s-3.2,8.4-7.5,9.5v18.1c3,1.7,5.1,4.9,5.1,8.6,0,5.5-4.3,9.8-9.7,9.8h0Z"/>
      <path class="st7" d="M473.2,364.1c-7.3,0-14-3.1-19.3-9-4.9-5.3-7.5-12.5-7.5-20.3s2.6-14.3,7.4-20.1h0c5.3-6,11.9-9.1,19.3-9.1s14.1,3.3,18.9,9c5,5.6,7.6,12.6,7.6,20.1s-2.7,15.1-7.6,20.3c-4.8,5.7-11.6,9-18.8,9h0ZM467.8,342.2c1.4,1.3,3.2,2,5.3,2s3.6-.7,5-2.1c1.6-2,2.4-4.3,2.4-7.2s-.8-5.1-2.3-6.9c-1-.9-2.9-2.3-5.1-2.3s-4.2,1.2-5.4,2.2c-1.4,1.8-2.1,4.2-2.1,7s.7,5.3,2.2,7.3h0Z"/>
      <path class="st7" d="M559.1,363.9c-5.2,0-9.7-4.5-9.7-9.8v-23.3c0-2.9-2.3-5.2-5.2-5.2s-4.8,2.3-4.8,5.2v23.3c0,.4,0,1.3-.4,2.4-1.1,4.3-5,7.4-9.5,7.4s-9.7-4.4-9.7-9.8v-38.5c0-5.4,4.3-9.8,9.7-9.8s4.1.7,5.7,1.9c2.8-1.2,6-1.9,9-1.9,13.5,0,24.5,11.2,24.5,25v23.3c0,5.4-4.3,9.8-9.6,9.8h0Z"/>
      <g>
        <path class="st7" d="M600.2,315c-5.3,0-9.6-4.3-9.6-9.7v-1.9c0-5.3,4.3-9.6,9.6-9.6s9.6,4.2,9.6,9.6v1.9c0,5.4-4.2,9.7-9.6,9.7Z"/>
        <path class="st7" d="M600.2,363.9c-5.3,0-9.6-4.4-9.6-9.8v-37.1c0-5.6,4.2-9.9,9.6-9.9s9.6,4.3,9.6,9.9v37.1c0,5.5-4.2,9.8-9.6,9.8Z"/>
      </g>
      <g>
        <path class="st7" d="M415.5,315c-5.3,0-9.6-4.3-9.6-9.7v-1.9c0-5.3,4.3-9.6,9.6-9.6s9.6,4.2,9.6,9.6v1.9c0,5.4-4.2,9.7-9.6,9.7Z"/>
        <path class="st7" d="M415.5,363.9c-5.3,0-9.6-4.4-9.6-9.8v-37.1c0-5.6,4.2-9.9,9.6-9.9s9.6,4.3,9.6,9.9v37.1c0,5.5-4.2,9.8-9.6,9.8Z"/>
      </g>
      <g>
        <path class="st7" d="M320.3,315c-5.3,0-9.6-4.3-9.6-9.7v-1.9c0-5.3,4.3-9.6,9.6-9.6s9.6,4.2,9.6,9.6v1.9c0,5.4-4.2,9.7-9.6,9.7Z"/>
        <path class="st7" d="M320.3,363.9c-5.3,0-9.6-4.4-9.6-9.8v-37.1c0-5.6,4.2-9.9,9.6-9.9s9.6,4.3,9.6,9.9v37.1c0,5.5-4.2,9.8-9.6,9.8Z"/>
      </g>
      <path class="st7" d="M653.2,363.8c-6.8,0-13.3-2.7-19.3-7.9-3.9-3.4-4.5-9.4-1.4-13.5,1.5-2.1,3.8-3.5,6.4-3.8-2-1.5-3.6-3.2-4.9-5.3h0c-1.4-2.6-2.2-5.5-2.2-8.6,0-5.5,2.6-10.7,7.2-14.4h.2c4-3,8.9-4.6,14-4.6,7.9,0,13.5,4.1,16.5,6.3,4.1,2.9,5.3,8.7,2.8,13.3v.2c-1.1,1.8-2.7,3.1-4.6,3.8,2.4,1.6,4.3,3.6,5.6,6,1.6,2.7,2.4,5.8,2.4,8.8,0,5.8-2.8,11.3-7.6,15h0c-4.3,3.1-9.4,4.8-14.7,4.8h-.4ZM649.9,343.3c1.1.5,2.2.8,3.1.8h.3c-.5-.1-1-.3-1.6-.4h-.4c-.5,0-.9-.2-1.4-.3h0Z"/>
    </g>
    <g>
      <path class="st7" d="M349.7,438.4c-2.8,0-5.4-1.4-6.8-3.7l-7.3-11.4-1.1.9-1.2,6.5c-.7,4.3-4.6,7.7-9.1,7.7s-4.8-1.1-6.3-2.9-2.1-4.3-1.7-6.7l6.1-34.4c.7-4.4,4.7-7.7,9.1-7.7s4.8,1.1,6.3,2.9,2.1,4.3,1.7,6.7l-.4,2s11.1-9.5,11.2-9.5c1.7-1.4,3.8-2.1,5.9-2.1s4.8,1.1,6.3,2.9c2.9,3.5,2.2,9-1.5,12.1l-11.6,9.9,8.5,13.1c2.4,3.8,1.2,8.9-2.6,11.8-1.5,1.2-3.4,1.9-5.4,1.9h-.1Z"/>
      <path class="st7" d="M404.2,438.4c-2.8,0-5.4-1.4-6.8-3.7l-7.3-11.4-1.1.9-1.2,6.5c-.7,4.3-4.6,7.7-9.1,7.7s-4.8-1.1-6.3-2.9-2.1-4.3-1.7-6.7l6.1-34.4c.7-4.4,4.7-7.7,9.1-7.7s4.8,1.1,6.3,2.9,2.1,4.3,1.7,6.7l-.4,2s11.1-9.5,11.2-9.5c1.7-1.4,3.8-2.1,5.9-2.1s4.8,1.1,6.3,2.9c2.9,3.5,2.2,9-1.5,12.1l-11.6,9.9,8.5,13.1c2.4,3.8,1.2,8.9-2.6,11.8-1.5,1.2-3.4,1.9-5.4,1.9h-.1Z"/>
      <path class="st7" d="M462.2,438.3c-2.4,0-4.7-1-6.2-2.8-1.6-1.8-2.2-4.3-1.8-6.7l1.1-6.6c-1.4.9-3.1,1.4-4.7,1.4h-.1c-2.4,0-4.5-.9-6-2.5l-1.7,9.6c-.8,4.4-4.8,7.7-9.1,7.7s-4.7-1-6.2-2.8c-1.6-1.8-2.2-4.3-1.8-6.7l6.1-34.4c.7-4.4,4.6-7.7,9.1-7.7h.3c3,0,5.7,1.6,7,4.2l5,9.3,9.4-10.5c1.8-1.9,4.2-3,6.7-3h.3c2.4,0,4.6,1.1,6.1,2.8,1.5,1.8,2.2,4.2,1.8,6.7l-6.1,34.4c-.7,4.4-4.7,7.8-9.1,7.8h0v-.2h0Z"/>
    </g>
    <g>
      <path d="M334,395.3l-3,16.9,22.5-19.1c1.5-1.2,3.6-1.2,4.5,0,1.1,1.3.7,3.3-.8,4.5l-15.3,13,11.1,17c.9,1.4.3,3.4-1.3,4.5-.6.5-1.5.8-2.2.8s-1.8-.4-2.3-1.2l-10.7-16.6-7.2,6.2-1.5,8.4c-.3,1.7-2,3.2-3.8,3.2s-3-1.5-2.6-3.2l6.1-34.4c.3-1.7,2-3.2,3.8-3.2s3,1.5,2.6,3.2h0Z"/>
      <path d="M388.6,395.3l-3,16.9,22.5-19.1c1.5-1.2,3.6-1.2,4.5,0,1.1,1.3.7,3.3-.8,4.5l-15.3,13,11.1,17c.9,1.4.3,3.4-1.3,4.5-.6.5-1.5.8-2.2.8s-1.8-.4-2.3-1.2l-10.7-16.6-7.2,6.2-1.5,8.4c-.3,1.7-2,3.2-3.8,3.2s-3-1.5-2.6-3.2l6.1-34.4c.3-1.7,2-3.2,3.8-3.2s3,1.5,2.6,3.2h0Z"/>
      <path d="M452,409.5l14.5-16.2c.8-.9,1.9-1.3,2.9-1.3h0c1.7,0,2.9,1.4,2.6,3.2l-6.1,34.4c-.3,1.8-2,3.3-3.8,3.3s-3-1.5-2.7-3.3l4.3-24.5-10.4,11.7c-.8.9-1.9,1.3-2.8,1.3h-.2c-1,0-1.9-.5-2.4-1.3l-6.3-11.7-4.3,24.5c-.4,1.8-2,3.3-3.8,3.3s-3-1.5-2.7-3.3l6.1-34.4c.3-1.8,2-3.2,3.8-3.2h0c1,0,1.9.4,2.4,1.3l8.7,16.1h.2,0Z"/>
    </g>
    <g>
      <path d="M104.8,330.7v23.3c0,2.8-2.1,5.2-4.8,5.2s-4.9-2.3-4.9-5.2v-23.3c0-5.5-4.3-9.9-9.6-9.9s-9.2,4.4-9.2,9.9v23.3c0,.3,0,.6-.2,1-.5,2.3-2.5,4.2-4.9,4.2s-4.9-2.3-4.9-5.2v-38.5c0-2.8,2.1-5.2,4.9-5.2s3.7,1.2,4.5,3c2.8-1.8,6.2-3,9.8-3,10.7,0,19.2,9.3,19.2,20.3h0Z"/>
      <path d="M155.7,359.2c-10.5,0-19.1-9.2-19.1-20.3v-23.3c0-2.7,2.2-5.2,4.9-5.2s4.9,2.4,4.9,5.2v23.3c0,5.6,4.1,10,9.4,10s9.6-4.4,9.7-10v-23.3c0-2.7,2-5.2,4.8-5.2s5,2.4,5,5.2v23.3c0,11.1-8.8,20.3-19.4,20.3h-.2,0Z"/>
      <path d="M288.7,315.6c0,2.7-2.1,5.2-4.9,5.2s-3.9.6-5.5,1.8c-1.7,1.2-3.1,2.8-4.2,4.7-2.2,3.1-3.3,6.8-3.8,8.2v18.5c0,2.8-2.3,5.2-5.1,5.2s-4.9-2.3-4.9-5.2v-38.5c0-2.8,2.2-5.1,4.9-5.1s5.1,2.2,5.1,5.1v.7c.6-.7,1.3-1.5,1.9-2,3-2.2,7-3.9,11.6-3.8,2.8,0,4.9,2.2,4.9,5.1h0Z"/>
      <path d="M227.3,317.9c0,2.8-2.4,5.1-5.1,5.1h-2.3v25.9c2.8,0,5.1,2.3,5.1,5.2s-2.2,5.1-5.1,5.1c-5.6,0-10.2-4.6-10.2-10.3v-25.9h-2.7c-2.8,0-5.1-2.3-5.1-5.1s2.2-5.1,5.1-5.1h2.7v-13.5c0-2.9,2.3-5.1,5.1-5.1s5.1,2.2,5.1,5.1v13.5h2.3c2.8,0,5.1,2.2,5.1,5.1h0Z"/>
      <path d="M378.6,317.9c0,2.8-2.4,5.1-5.1,5.1h-2.3v25.9c2.8,0,5.1,2.3,5.1,5.2s-2.2,5.1-5.1,5.1c-5.6,0-10.2-4.6-10.2-10.3v-25.9h-2.7c-2.8,0-5.1-2.3-5.1-5.1s2.2-5.1,5.1-5.1h2.7v-13.5c0-2.9,2.3-5.1,5.1-5.1s5.1,2.2,5.1,5.1v13.5h2.3c2.8,0,5.1,2.2,5.1,5.1h0Z"/>
      <path d="M717.8,317.9c0,2.8-2.4,5.1-5.1,5.1h-2.3v25.9c2.8,0,5.1,2.3,5.1,5.2s-2.2,5.1-5.1,5.1c-5.6,0-10.2-4.6-10.2-10.3v-25.9h-2.7c-2.8,0-5.1-2.3-5.1-5.1s2.2-5.1,5.1-5.1h2.7v-13.5c0-2.9,2.3-5.1,5.1-5.1s5.1,2.2,5.1,5.1v13.5h2.3c2.8,0,5.1,2.2,5.1,5.1h0Z"/>
      <path d="M457.4,352.1c-3.9-4.3-6.3-10.3-6.3-17.2s2.4-12.4,6.3-17.1c4.1-4.6,9.5-7.4,15.8-7.4s11.6,2.8,15.4,7.4c4.1,4.7,6.4,10.4,6.4,17.1s-2.3,12.9-6.4,17.2c-3.8,4.6-9.3,7.4-15.4,7.4s-11.7-2.8-15.8-7.4ZM461.1,334.9c0,4.2,1.2,7.6,3.3,10.3,2.3,2.3,5.3,3.6,8.8,3.6s6.2-1.3,8.5-3.6c2.3-2.7,3.6-6.2,3.6-10.3s-1.3-7.5-3.6-10.1c-2.3-2.2-5.2-3.7-8.5-3.7s-6.5,1.6-8.8,3.7c-2.1,2.6-3.3,6.2-3.3,10.1Z"/>
      <path d="M564,330.8v23.3c0,2.8-2.2,5.2-4.9,5.2s-5-2.3-5-5.2v-23.3c0-5.5-4.5-9.9-9.9-9.9s-9.5,4.4-9.5,9.9v23.3c0,.3,0,.6-.2,1-.5,2.3-2.6,4.2-5,4.2s-5-2.3-5-5.2v-38.5c0-2.8,2.2-5.2,5-5.2s3.8,1.2,4.6,3c2.8-1.8,6.3-3,10.1-3,11,0,19.8,9.3,19.8,20.3h0Z"/>
      <g>
        <path d="M605.2,305.4c0,2.8-2.1,5-5,5s-5-2.3-5-5v-1.9c0-2.8,2.2-4.9,5-4.9s5,2.2,5,4.9v1.9Z"/>
        <path d="M605.2,317v37.1c0,2.8-2.1,5.1-5,5.1s-5-2.3-5-5.1v-37.1c0-3,2.2-5.2,5-5.2s5,2.2,5,5.2Z"/>
      </g>
      <g>
        <path d="M420.5,305.4c0,2.8-2.1,5-5,5s-5-2.3-5-5v-1.9c0-2.8,2.2-4.9,5-4.9s5,2.2,5,4.9v1.9Z"/>
        <path d="M420.5,317v37.1c0,2.8-2.1,5.1-5,5.1s-5-2.3-5-5.1v-37.1c0-3,2.2-5.2,5-5.2s5,2.2,5,5.2Z"/>
      </g>
      <g>
        <path d="M325.4,305.4c0,2.8-2.1,5-5,5s-5-2.3-5-5v-1.9c0-2.8,2.2-4.9,5-4.9s5,2.2,5,4.9v1.9Z"/>
        <path d="M325.4,317v37.1c0,2.8-2.1,5.1-5,5.1s-5-2.3-5-5.1v-37.1c0-3,2.2-5.2,5-5.2s5,2.2,5,5.2Z"/>
      </g>
      <path d="M636.2,345.2c1.7-2.3,4.9-2.6,6.9-.8,2.4,2.2,6.5,4.4,10.1,4.3,2.5,0,4.8-.9,6.3-1.8,1.3-1.2,1.7-2.2,1.7-2.9s0-.7-.3-1c0-.3-.5-.7-1.2-1.2-1.3-1-4-2.1-7.4-2.7h0c-2.8-.6-5.6-1.4-8-2.5-2.5-1.3-4.7-3-6.3-5.7-1-1.7-1.6-3.9-1.6-6.2,0-4.5,2.4-8.3,5.4-10.7,3.2-2.3,7.1-3.6,11.3-3.6,6.3,0,10.9,3.2,13.8,5.4,2.2,1.6,2.8,4.8,1.5,7.2-1.5,2.3-4.5,3-6.8,1.4-2.9-2.1-5.5-3.6-8.5-3.6s-4.3.8-5.5,1.7c-1.2.9-1.5,1.7-1.5,2.2s0,.5.2.8c0,.2.4.6,1,1,1.2.9,3.6,1.7,6.7,2.3h0c3,.6,5.9,1.5,8.6,2.8,2.5,1.2,5,3,6.5,5.8,1.1,2,1.7,4.2,1.7,6.4,0,4.8-2.5,8.8-5.8,11.3-3.3,2.4-7.5,3.9-12,3.9-7.2,0-12.7-3.6-16.4-6.7-2-1.7-2.3-5.1-.6-7.2h.2,0Z"/>
    </g>
    <rect x="63.1" y="373.8" width="666.1" height="8.8"/>
    <rect x="63.1" y="280.1" width="666.1" height="8.8"/>
  </g>
  <g>
    <path id="Circle" class="st10" d="M1461.2,446.4h-3.9c-41.4,47.4-102.9,77.4-171.6,77.4s-84.3-12.1-118.8-33c0,.7-.4,1.2-.5,1.5-1.2,2.4-3.3,4.2-6,5,36.3,22.4,79.2,35.4,125.3,35.4,74.2,0,140.3-33.6,183.4-86.2h-7.9ZM1503.3,361.9c-3.2,11.4-7.3,22.4-12.3,32.9.7.5,1.3,1.1,1.7,1.8.5.7.7,1.5.8,2.2,0,1.1-.4,2-.5,2.3-1.7,3.5-5.1,6.6-9.9,9-4.6,8.1-9.8,16-15.4,23.4,3.7,0,7.4,0,11.1.1,15.3-21.6,26.9-45.8,34-71.9h-9.4v.2h0ZM1285.7,73.2c-100.2,0-185.7,61.4-219.4,147.8l6.3,8.9c30.8-86.1,114.6-147.8,213.1-147.8s174.6,56.2,208.5,136.1h9.8c-34.5-84.9-119.2-145-218.3-145h0ZM1051.2,289.8c3.4.7,6.3,2,8.9,3.7,0-2.2.2-4.4.4-6.5h-9.1c0,.9,0,1.9-.2,2.8h0ZM1511.4,239.4h-2.3v31.5c.8,5.6,1.5,11.3,1.8,17h9.1c-1.1-16.7-4-33-8.6-48.5ZM1062.7,337.4c-2.4,2.2-5.3,3.8-8.4,4.9,3.5,19.9,9.7,39,18.1,56.8.4-1.1.7-2.1,1.1-3.1,1.1-3.1,2.2-6.1,3.4-9-6.6-15.7-11.4-32.3-14.2-49.5h0ZM1133.3,465.9c-1.9-.1-3.6-.7-5-1.7-2-1.5-3.3-3.7-3.7-6.4-8.1-8.1-15.6-16.8-22.4-26-.9.5-1.9,1-3.1,1.4-1.3.5-2.6.7-3.8.8h-.9c-.6,0-1.2,0-1.7-.1,15.3,21.5,34.2,40.4,56,55.7,0-.6.3-1.1.5-1.7.6-1.3,1.4-2.6,2.5-3.6.7-.7,1.5-1.3,2.4-1.7-7.2-5.1-14.1-10.6-20.7-16.4h0v-.3h-.1Z"/>
    <g id="Pemakanan">
      <path class="st28" d="M1059.9,299.1c-2.4-2.2-5.4-3.9-9-4.7-1.9-.5-4-.7-6.2-.7h-25.7c-1.4,0-2.3.9-2.3,2.4v60.1c0,1.5.9,2.4,2.3,2.4h16c1.4,0,2.3-.9,2.3-2.4v-17h7.4c3.3,0,6.2-.6,8.7-1.5,3.4-1.3,6.2-3.4,8.3-5.9,7.7-9.2,7-24.5-1.9-32.6h0ZM1040.1,324.1h-2.7v-14.8h2.7c8.6,0,8.4,14.8,0,14.8Z"/>
      <path class="st28" d="M1112.3,311.2c1.4,0,2.3-.9,2.3-2.4v-12.7c0-1.5-.9-2.4-2.3-2.4h-37.5c-1.4,0-2.3.9-2.3,2.4v60.1c0,1.5.9,2.4,2.3,2.4h15.8c1-1.2,2.6-2.6,5-2.6s2.8.6,3.7,1.2c.6.4,1.3.8,2,1.4h11.1c1.4,0,2.3-.9,2.3-2.4v-13c0-1.5-1-2.4-2.4-2.4h-18.8v-5.7h15.8c1.4,0,2.3-.9,2.3-2.4v-12.7c0-1.5-.9-2.4-2.3-2.4h-15.8v-6.4h18.9,0Z"/>
      <path class="st28" d="M1189.3,296.3v57.1c0,.8-.2,2.1-.5,2.7-.2.7-2.6,1.2-3.4,1.2h-12.9c-.8,0-2-.2-2.7-.5-.6-.3-1.1-2.6-1.1-3.4v-27.3c0-.8,0-1.3,0-1.1v.5h0s-.5.7-1,1.4l-13.2,16.8c-.5.6-1.3.6-1.8,0l-12.6-16.6c-.5-.7-.9-1.3-1-1.4h0v-.6c0-.2,0,.2,0,1.1v27.3c0,.8,0,2.1-.3,2.7-.2.5-1.7,1-2.7,1.1,0-1.2,0-2.4-.2-3.6-.3-5.2-3.7-9.1-7.9-9.1s-.4,0-.6,0c-4.3.4-7.2,4.7-6.9,10v2.5c-.3,0-.6-.2-.9-.2-.6-.3-1.1-2.6-1.1-3.4v-57.1c0-.8.2-2.1.5-2.7.2-.7,2.6-1.2,3.4-1.2h13.8c.8,0,1.9.1,2.4.3s1.6,1.7,2.1,2.4l12.4,18.9c.5.7,1.2.7,1.7,0l12.9-18.9c.5-.7,1.1-1.6,1.5-1.9.3-.4,2.2-.7,3-.7h13.7c.8,0,3.1.6,3.4,1.2.2.7.5,1.9.5,2.7h0l-.3-.2h-.2Z"/>
      <path class="st28" d="M1253.3,354.1l-22.3-60.1c-.3-.9-1.1-1.6-2.1-1.6h-11.4c-1,0-1.9.6-2.1,1.6l-22.3,60.1c-.8,2,0,3.3,2.1,3.3h15.5c1.1,0,2-.7,2.2-1.8l2.3-8.2h15.9l2.3,8.2c.3,1,1.1,1.8,2.2,1.8h15.5c2.1,0,2.9-1.3,2.2-3.3h0ZM1220.1,329.9l3.1-11.1,3.1,11.1h-6.2Z"/>
      <path class="st28" d="M1311,354.7c-2.2.8-4.4,1.7-6.6,2.6h4.2c2,0,2.8-1,2.4-2.6ZM1308.1,292.4h-16.9c-.8,0-1.6.5-2.1,1.2l-11.1,19.5v-18.3c0-1.5-.9-2.4-2.3-2.4h-16c-1.4,0-2.3.9-2.3,2.4v60.1c0,1.5.9,2.4,2.3,2.4h10c.7-.4,1.4-.7,2.1-1.1h0c2-1.1,4-2.1,6.1-3.1v-9.7l3.5-5.2,4.4,11.2c6.1-2.7,12.3-5.1,18.5-7.2l-11.3-21.2,16.8-24.9c1.5-2.3.8-3.8-1.9-3.8h.2Z"/>
      <path class="st28" d="M1373.5,354.1l-22.3-60.1c-.3-.9-1.1-1.6-2.1-1.6h-11.4c-1,0-1.9.6-2.1,1.6l-16.3,43.9c.4,0,.8-.2,1.3-.2,1.3-.2,2.7-.3,3.9-.3s2.1,0,3.2.2c.7,0,1.4.2,2,.4,0,0,.5.1.6.2.2,0,.5.2.7.2.4.2.9.4,1.3.6,2,1,3.5,2.6,4.4,4.5h0c.4.7.6,1.4.8,2.1.3,1,.5,1.6.6,1.9h13.4l2.3,8.2c.3,1,1.1,1.8,2.2,1.8h15.5c2.1,0,2.9-1.3,2.1-3.3h0ZM1340.2,329.9l3.1-11.1,3.1,11.1h-6.2ZM1322.8,350.7c-1.5.3-3.1.9-4.4,1.3-1.5.5-3.3,1.2-5.2,1.8v.3c-.9,2,0,3.3,2,3.3h1.6c.5-.3,1-.7,1.4-1.1,1.7-1.4,3-2.8,4.1-4.2.4-.5.7-1,1.1-1.5-.2,0-.5,0-.7.1h0Z"/>
      <path class="st28" d="M1430.5,292.4h-16c-1.4,0-2.3.9-2.3,2.4v25.4l-13.9-26.5c-.4-.8-1.1-1.3-2-1.3h-16.9c-1.4,0-2.3.9-2.3,2.4v60.1c0,1.5.9,2.4,2.3,2.4h6.9c1.5-3.9,3.2-7.7,5.1-11.5.8-1.5,1.5-2.8,2.2-4,.9-1.5,2.3-3.5,4-5.2v-7.2l2.6,5c1.4-.9,2.9-1.4,4.5-1.4s3.7.5,5.7,2.7c3.8,4.3,4.7,11.2,2.7,21.2v.2h17.3c1.4,0,2.3-.9,2.3-2.4v-60.1c0-1.5-.9-2.4-2.3-2.4h0v.2h.1Z"/>
      <path class="st28" d="M1495.7,354.1l-22.3-60.1c-.3-.9-1.1-1.6-2.1-1.6h-11.4c-1,0-1.9.6-2.1,1.6l-22.3,60.1c-.6,1.4-.3,2.5.8,3,.9-2,1.7-3.8,2.5-5.2,5.5-9.7,9.5-15.3,14.2-15.3s4.3.5,5.8,4.9c.6,1.9,1.1,3.9,1.3,5.9h13.5l2.3,8.2c.3,1,1.1,1.8,2.2,1.8h15.5c2.1,0,2.9-1.3,2.1-3.3h0ZM1462.4,329.9l3.1-11.1,3.1,11.1h-6.2Z"/>
      <path class="st28" d="M1553.9,292.4h-16c-1.4,0-2.3.9-2.3,2.4v25.4l-13.9-26.5c-.3-.7-.9-1.1-1.5-1.2h-17.4c-1.4,0-2.3.9-2.3,2.4v60.1c0,1.5.9,2.4,2.3,2.4h16c1.4,0,2.3-.9,2.3-2.4v-25.4l13.9,26.5c.4.8,1.1,1.3,2,1.3h16.9c1.4,0,2.3-.9,2.3-2.4v-60.1c0-1.5-.9-2.4-2.3-2.4h0Z"/>
      <polygon class="st28" points="1138.8 325.5 1138.9 325.9 1138.7 325.5 1138.8 325.5"/>
      <polygon class="st28" points="1168.6 325.5 1168.5 325.8 1168.5 325.5 1168.6 325.5"/>
    </g>
    <g id="Negeri_Sembilan">
      <g>
        <path class="st15" d="M1065.9,463.1"/>
        <path d="M1228.2,396.8c-.5-1.6-2-2.6-3.4-3.5-1.6-.9-3.4-1.9-5.1-1.3-1.5.5-2.8,2-4.3,1.6-2.2-.6-2.3-4.9-4.5-4.5-1.8.3-1.6,3.3-3.1,4.4-.5.4-1.1.5-1.7.7-2.5,1-3.4,3.9-4.6,6.2-2,3.7-5.6,6.5-9.8,7.5-1.2.3-2.5.4-3.5-.2s-1.5-2.3-.6-3.1c3.7-.3,7.7-1.4,10-4.3s2-8.1-1.3-9.7c-1.3-.6-2.9-.7-4.3-.4-3.7.7-6.9,3.4-8.3,6.9-.6,1.5-.8,3.2-1.6,4.6-1.3,2.4-4,3.7-6.7,4.3-.5,0-1,.2-1.4,0-1.1-.2-1.7-1.4-1.9-2.5-.2-1.3-.2-2.7-.2-4.1,0-2.1-.2-4-1.8-5.2-2.1-1.6-5.2-.4-7.1.9-2.1,1.5-4.5,2.8-6.2,4.7-1.7,1.9-2.8,4.5-2.4,7,.5,2.5,2.9,4.7,5.4,4.3,2.3-.3,4.4-2.5,6.5-1.5-.8,1.8-2.4,3.2-3.9,4.4-9.7,7.9-19.3,16.1-27,25.9-2.9,3.8-5.6,7.9-6.7,12.6-.7,2.9-.5,6.4,1.9,8.2,1.8,1.3,4.2,1.2,6.4.8,9.6-1.7,17.9-8.3,23.4-16.4,5.4-8.1,8.2-17.8,9.7-27.4,0-1,.3-2,.9-2.8,1.4-1.8,4.2-1.4,6.1-2.5,1.1-.6,1.8-1.7,2.7-2.5.9-.8,2.2-1.5,3.4-1,.7.3,1.2,1,1.8,1.6,2.1,2.2,5.4,3,8.4,2.4s5.6-2.4,7.6-4.7c.5-.6,1.1-1.2,1.8-1.3,1,0,1.8,1,2,2s.2,2.1.7,3c1.1,2,4.3,1.7,5.9,0,1.6-1.6,2.2-4,3-6.1.9-2.4,2.3-4.6,3.9-6.5,1.3-1.5,3.6-2.9,5.2-1.7.7.6,1.1,1.7,1.9,2.1,1.5.8,3.1-1.3,2.7-2.9h0ZM1189.1,398.4c.5-.8,1.1-1.7,1.8-2.5.7-.8,1.6-1.4,2.6-1.8.2,0,.4-.1.5,0,.4.1.4.6.4,1-.2,2.1-1.6,3.9-3.3,5.1-.3.2-.6.4-.9.5s-.7,0-1-.1c-.3-.2-.4-.6-.4-1s.2-.7.4-1.1h0ZM1161.8,427.8s-4.3,18.6-22,26.9c0,0-7.9,4-3.2-4.7,2.6-4.9,6.6-9.1,10.4-13,3-3.1,6.1-6.2,9.3-9.2,1.1-1,2.2-2,3.2-3s2.1-2.1,2.9-1.5c1,.7-.3,3.7-.6,4.5h0ZM1167.9,398.9c-.5,2-2.2,3.6-4,4.6-.3.2-.6.3-1,.3s-.7,0-1-.3-.3-.7-.3-1.1.3-.7.5-1c.6-.8,1.3-1.6,2.1-2.2.9-.7,1.8-1.2,2.8-1.4h.5c.4.2.3.7.2,1.1h.2Z"/>
        <path d="M1233.6,395c1.1-3,2.8-5,5.2-2.3,1.7,1.8-.3,4.9-1.2,6.4-1.8,3.1-2.2,7-1.1,10.4,0,.3.2.7.5.9.3.3.6.5.9.8.6.6.8,1.6.5,2.4-1.4,3.2-4.7.2-5.6-1.6-1.3-2.6-1.2-6.2-.9-9,0-1.2.7-5,1.8-7.9h-.1Z"/>
        <path d="M1233.4,381.4c-.6,1.1-.8,2.3-.9,3.6v1.7c.2.6.7,1.1,1.2,1.1s1.1-.2,1.5-.6.7-.9,1-1.3c.7-1,1.6-1.8,2.6-2.3.9-.5,2.4-.6,3.1-1.2,1.1-1.1,0-3.8-1.2-4.3-1.7-.7-4,.3-5.5,1.2-.9.6-1.5,1.3-2,2.1h.2Z"/>
        <path d="M1412.5,394.4c1.1-3,2.8-5,5.2-2.3,1.7,1.8-.3,4.9-1.2,6.4-1.8,3.1-2.2,7-1.1,10.4,0,.3.2.7.5.9.3.3.6.5.9.8.6.6.8,1.6.5,2.4-1.4,3.2-4.7.2-5.6-1.6-1.3-2.6-1.2-6.2-.9-9,0-1.2.7-5,1.8-7.9h-.1Z"/>
        <path d="M1412.3,380.8c-.6,1.1-.8,2.3-.9,3.6v1.7c0,.5.7,1.1,1.2,1.1s1.1-.2,1.5-.6.7-.9,1-1.3c.7-1,1.6-1.8,2.6-2.3.9-.5,2.4-.6,3.1-1.2,1.1-1.1,0-3.8-1.2-4.3-1.7-.7-4,.3-5.5,1.2-.9.6-1.5,1.3-2,2.1h.2Z"/>
        <path d="M1152.1,393.8c-1.6-1.8-3.5,2.7-3.9,3.6-1.5,3.3-3.6,6.4-6.6,8.5-2,1.4-5.4,2.8-7.8,1.5-.6-.4-1.1-1.1-.9-1.8,0-.4.4-.7.7-.8.4-.2.9-.2,1.4-.2h0c1.4,0,2.7-.4,4-1,2.3-1.1,4.7-3.6,5-6.2.2-2.3-1.2-4.4-2.9-5.8-1.6-1.2-3.5-1.5-5.3-.6-6.2,2.8-12.3,13.7-6.4,19.1.9.8,1.7,1.6,2.9,2.2,2.6,1.3,5.6,1,8.2-.1,2.1-.9,3.9-2.4,5.6-3.9,1.8-1.6,3.4-3.3,4.7-5.3,1.1-1.7,1.8-3.6,2-5.6,0-1.1,0-2.6-.7-3.4h0v-.2h0ZM1135.2,399.3c0-.3,0-.6.2-.9.3-.7.7-1.3,1.3-1.8.8-.7,1.8-1.2,2.8-1.7h.5c.7.8.2,1.8-.2,2.6-.6.8-3.2,4.4-4.3,3.1-.3-.3-.3-.7-.3-1.1h0v-.2Z"/>
        <path d="M1369,389.8c-6.8,5.9-5.3,11.1-8.1,4.9-.4-.9-1-2.3-2-2.6-1.2-.4-1.9,1.4-2.2,2.2,0,.2,0,.4-.2.6,0,.1-.2.2-.3.3-.5.4-1.2.6-1.7.3-.6-.2-.9-.7-1.3-1.2-2-2.5-5.2-.2-6.4,1.9-1.9,3.6-5.8,10.3-12.2,11.9-6.4,1.7-3.4-3.7-3.4-3.7,0,0,8.2,1.4,10.7-7.1,0,0,.5-12.8-10.7-5.1-3.3,2.3-5.8,5.6-6.2,9.7-.3,3.6.7,8.3,4.1,10.2,1.3.7,2.8,1.1,4.3,1.2,3.1.3,6.2-.3,8.5-2.5,4.9-4.9,4.9-1.9,4.9-1.9,0,0,2.1,5.4,4.4.9s4.1-5.1,4.5-2.7,3.5,3.6,5.5.6c2.1-2.9,5-3.7,3.5,1.1-1.5,4.9-1.8,12.7-.6,14,1.1,1.3,2.4,5.3,5.5-11s5.3-20.8,5.3-20.8c0,0,1.1-7.2-5.6-1.3h-.3ZM1333.1,397.2s5.6-6.6,4.5-1.1c0,0-1.1,3.6-4.5,4.4-3.4.9,0-3.3,0-3.3h0Z"/>
        <path d="M1391.2,387.3c1.4-1.3,2.8-2.7,4.1-4.1,6.9-7.6,12.2-17.1,14.2-27.2,1.1-5.2,2.1-13.5-1.8-17.9-4-4.5-8.9,2.4-10.8,5.5-.7,1.2-1.4,2.5-2.1,3.8-5.4,10.5-9,21.9-11.9,33.3-2.6,10-4.5,20.1-6.3,30.3-.3,1.7-.4,3.5.4,5,.6,1.1,1.6,1.6,2.7,1.1.6-.2,1-.7,1.4-1.1.4-.5.9-.9,1-1.6h0v-1.7c0-.4.2-.9.3-1.3.3-1.1.7-2.1,1-3.1,0-.3.2-.5.4-.7.3-.3.9-.2,1.2,0,.4.3.6.7.8,1.1.6,1,1.2,2,2.2,2.8.9.7,2.1,1.1,3.3.9,1-.2,1.7-.8,2.5-1.3,1.3-.9,2.5-1.9,3.7-3,.9-.9,1.8-1.9,2.6-2.9,1.5-1.7,2.7-3.9,5-4.5,3.2-.9,3.5-3.5,2.2-4s-2.3-2.8-2.3-2.8c0,0-2.1-10.4-11.5-3.1-1.5,1.2-3.4,2.8-5.3,3.1-.3,0-.7,0-.9-.2,0-.2-.2-.4-.2-.6,0-.6,0-1.2.3-1.8.7-1.7,2.6-2.8,3.9-4h0ZM1389.9,375.3c1.1-5,3.9-9.9,6-14.6.8-1.7,1.6-3.5,2.4-5.2,1.2-2.5,2.5-5,3.8-7.5.4-.7,1.4-3.4,2.5-2.1.5.7.2,2.4.2,3.2-.7,11.2-12.2,27.6-12.3,27.7-.5.6-1.2,1.7-1.9,2-1.7.7-.8-2.7-.6-3.5h0ZM1392.4,398.6c.8-.8,1.7-1.4,2.6-2s1.9-1,2.9-1.4c.8-.3,3.3-1.3,2.8.5-.6,2.4-3.9,4.3-6.1,5-.7.2-1.6.3-2.2,0-.2-.1-.4-.3-.5-.6-.2-.5.2-1,.6-1.4h-.1Z"/>
        <path d="M1455.2,342.4c-2.4-7.1-8.9,3.3-13.2,11-4.4,7.7-10,26.7-14.6,35.6s-6.8,26.6-2.8,33,9.7,1.8,5.8-.9c-2.9-2-2.7-7.1-2.7-10.1s.2-3.9.6-5.7c1.4-7.3,5.1-12.6,9.9-18.2,5.6-6.4,10.5-13,14-20.9,3.3-7.3,5.7-15.9,3-23.8h0ZM1449.1,355.8c-.7,5.9-3.7,11.1-7.2,15.4,0,.1-.2.2-.3.2-.3,0-.3-.5-.2-.7.6-3,1.6-6,2.8-8.8,0-.2,0-.3.2-.5.6-1.2,1.2-2.5,1.9-3.6.4-.6,1.7-3.4,2.5-3.1.4.1.4.7.4,1.1h-.1Z"/>
        <path class="st15" d="M1513.8,473.8"/>
        <path d="M1455.2,398.3c-.5-.3-1.1-.4-1.6-.6-.4-.2-.8-.6-1.1-.9-.7-.8-1.2-1.9-1.9-2.8-.6-.7-1.2-1.2-2.3-1.1-1.9.2-3.7,1.6-5.1,2.8-2.5,2-6.4,5.1-7.2,8.4-.3,1.2-.2,2.6.2,3.8,1.6,5,7,5.8,10.7,2.6.6-.5,1.9-1.7,2.8-1.3.8.4.7,1.5.6,2.2-.2,1.1-.3,2.1.4,3.1.7,1.1,2.6,2.1,3.9,1.3.9-.5.8-1.7.8-2.6-.2-2.9-1.4-5.9-.5-8.8,0-.4.2-.8.5-.9h.5c.6,0,.8-.8.8-1.4,0-1.4-.2-3.1-1.4-3.8h-.1ZM1450.6,400.5c0,.6-.4,1.2-.8,1.7-.5.6-1.2,1-1.9,1.4-.9.5-1.8,1-2.7,1.5-.6.3-1.2.7-1.9.5-.5-.1-.8-.5-.9-1-.3-1.6,1.4-2.9,3.3-3.9,1.4-.7,3-1.2,3.8-1.3.4,0,.9,0,1.1.3v.8h0Z"/>
        <path d="M1466.5,394.7h0c-.2-.4-.6-.5-.9-.5-2.2-.2-3.3,1.9-4,3.6-.4.8-.5,1.9-.7,2.8-.3,1.4-.6,2.9-.8,4.4-.2,1.4,0,2.9,1.2,3.8,1.1.9,2.8.6,4,0,2.8-1.6,4.3-4.7,7.1-6.3.2-.1.4-.2.6-.2.5,0,.7.6.9,1.1.2.8.3,1.6.5,2.3.3.9.8,1.8,1.6,2.2,1.3.6,3.3-.1,4.5-.7,3.5-1.7,7.4-4.1,9.2-7.7v-.5c0-.2,0-.3-.2-.4-.6-.9-1.7-1.5-2.7-1.5s-2.2,1-3.3,1.8c-.8.6-1.6,1.3-2.6,1.8-1.6.8-2.5-.3-2.8-1.9-.4-2-.2-4-1.2-5.8-.2-.4-.5-.9-1-1.1-.8-.5-1.8-.3-2.6,0-1.5.7-2.3,1.8-3.2,3-.6.8-3,3.5-3.5,1.2,0-.4,0-.9-.2-1.3h0Z"/>
        <path d="M1332.3,356.3c-4.4,6.7-12.7,9.6-19.8,12.4-.6.2-1.1.4-1.7.4s-1.2-.4-1.4-1c-.2-.6.3-1.2.7-1.7,3-3.2,7.3-4.8,10.7-7.6,1.7-1.4,3.3-3,4.7-4.8s1.3-1.8,1.8-2.8c0-.2.2-.5.3-.7,0-.3.2-.5.4-.8,0-.2,0-.3.2-.5,0-.2,0-.4.2-.6v-.9c0-.2,0-.5-.2-.6,0-.2-.4-.4-.6-.5h-.5c-.3-.1-.6-.2-.9-.2-1.3-.1-2.8,0-4.3.3s-3.1.8-4.8,1.4c-1.7.6-3.5,1.2-5.3,1.9-7.2,2.7-14.8,5.8-22.7,9.6-3.9,1.9-8,4-12,6.2-4.1,2.3-8.3,4.5-11.3,7.3-1.6,1.4-2.8,3-3.6,4.6-.7,1.6-1,3.4-.6,4.7,0,.3.2.6.4.9,0,.1,0,.2.2.4l.4.5c.2.3.6.6,1,.9s.8.6,1.1.8c1.7,1.1,3.8,1.8,6.1,2.4,4.6,1.2,9.8,1.6,15.1,2,5.2.5,10.7.8,16.2,1.9,2.8.6,5.6,1.3,8.3,2.3,1.4.6,2.7,1.1,4.1,1.9,1.4.7,2.8,1.7,4.1,2.9,1.3,1.2,2.4,2.8,3.2,4.5s1.1,3.4,1.3,5.1c0,1.7,0,3.4-.4,5.1-.3,1.7-1,3.3-1.7,4.7-1.5,2.9-3.6,5.3-5.9,7.3s-4.7,3.6-7.2,5c-4.9,2.7-10.2,4.8-15.7,6.2-1.4.3-2.8.6-4.2.8-.7.1-1.4.2-2.1.3-.7,0-1.5.2-2.4.2s-1.9,0-3-.4-2.2-.8-3.1-1.5c-1.9-1.4-3-3.3-3.6-5.3-.3-1-.4-2-.4-3.1s.2-2,.4-2.9c.5-1.9,1.4-3.5,2.4-4.9.5-.7,1.1-1.4,1.7-1.9.6-.6,1.1-1.1,1.7-1.6,1.1-1,2.3-1.9,3.5-2.7,2.6-1.7,5.3-2.7,7.3-2.9s3.6.3,4,1.3c.8,2.1-2.6,5.3-6.9,8.2-1,.7-1.9,1.4-2.8,2.1-.4.4-.8.7-1.2,1.1-.4.4-.6.7-.9,1.1-.6.7-.9,1.5-1.1,2.2v1.8c0,.6.5,1,.7,1.2,0,0,.2.1.4.2h.9c.8,0,2.1-.2,3.3-.4,1.2-.2,2.4-.4,3.6-.7,4.8-1.1,9.4-3,13.7-5.4,4.3-2.4,8-5.3,9.9-9,.5-.9.8-1.8,1-2.7.2-.9.3-1.9.2-2.8,0-.9-.3-1.8-.6-2.5-.4-.7-.8-1.4-1.4-2-1.3-1.2-3.3-2.2-5.5-3.1s-4.5-1.5-7-2c-4.9-1-10-1.3-15.3-1.8l-4-.4c-1.3-.1-2.7-.3-4-.4-2.7-.3-5.5-.7-8.3-1.5-2.8-.7-5.6-1.7-8.4-3.4-.7-.5-1.3-.9-2-1.4-.6-.6-1.3-1.1-1.8-1.8l-.8-1c-.3-.4-.6-.8-.8-1.2-.5-.9-.8-1.8-1.1-2.7-.5-1.8-.5-3.6-.3-5.3.2-1.7.7-3.3,1.4-4.8,1.4-2.8,3.4-5.2,5.5-7.1s4.4-3.3,6.6-4.6,4.3-2.4,6.4-3.5c4.2-2.2,8.4-4.2,12.5-6.1,8.3-3.7,16.2-6.7,23.7-9.1,1.9-.6,3.7-1.1,5.5-1.7s3.7-1,5.6-1.3,4-.4,6,0c.5,0,1,.2,1.6.3h.4c0,.2.3.2.5.3.3.1.6.3.9.4,1.2.6,2.2,1.6,2.7,2.7,0,0,1.1,3.2,1.1,3.4.5,2.9-.3,5.8-1.9,8.2v-.2l-.2.4h.1Z"/>
        <path d="M1328.2,349.2c0,.2,0,.3-.2.5,0-.1,0-.3.2-.5h0Z"/>
        <path d="M1131.6,371.9c-.5,6.2-1.4,12.3-3.1,18.3s-4.2,11.8-7.4,17.3c-1.6,2.7-3.4,5.3-5.5,7.8-2,2.5-4.2,4.8-6.7,6.8-2.2,1.9-4.5,3.6-6.9,5-1.1.7-2.5,1.5-4.2,2.1-.9.3-1.8.5-2.8.6s-2.2,0-3.2-.3c-2.1-.6-3.7-1.9-4.9-3.3-1.2-1.4-2-3.1-2.4-4.6-1.8-6.1-.9-13.5.3-19.5-2.9,7.1-5.6,14.3-8,21.6-.7,2.2-1.6,4.6-3.4,6-.4.3-.9.6-1.3.5-.9,0-1.4-1.2-1.6-2.1-.5-2.5-.2-5.1,0-7.6,1.1-8,3.6-15.9,6.3-23.5,4.3-12.1,9.4-23.9,15.7-35,.6-1.1,1.6-2.5,2.9-2.4.6,0,1.2.3,1.7.6,1.1.7,2.2,1.5,2.7,2.6.8,1.7.4,3.7-.5,5.4s-2,3.2-2.7,4.9c-.6,1.4-.9,3-1.2,4.5-1.1,5.8-2.1,11.7-3.1,17.5-1.1,6.7-2,13.5-1.6,20.3,0,1.7.4,3.5,1.2,5.1.3.6.8,1.2,1.5,1.5.9.3,1.8-.1,2.6-.6,5.1-2.7,9.6-6.6,13.2-11.1,1.7-2.1,3.4-4.4,4.8-6.8,2.8-4.8,5-10,6.5-15.4,3.1-10.8,3.6-22.4,2.9-34-.2-3.1,1.3-5.8,3.5-6s4.2,2.2,4.4,5.5c.4,6.1.4,12.2,0,18.3h.3,0Z"/>
      </g>
      <path d="M1181.1,486.6c-1,0-2-.6-2.4-1.6-.6-1.3,0-2.9,1.4-3.4.3-.1,29.9-12.2,81.7-23.6,47.7-10.5,124.7-22.7,220.3-20.7,1.5,0,2.6,1.2,2.6,2.7s-1.2,2.6-2.6,2.6h0c-95-2-171.5,10.1-218.9,20.5-51.4,11.3-80.7,23.3-80.9,23.4-.3.1-.7.2-1,.2h-.2Z"/>
      <path d="M1154.2,486.4c-.7.7-1.2,1.5-1.6,2.3-.3.8-.5,1.7-.2,2.6.8,2,3.8,2.4,5.7,2.2,2.1-.2,4-1.3,4.9-3.2,0-.2.2-.4.2-.7v-.8c-.5-2.1-2.5-4.5-4.9-4.3-1.5.1-2.9.8-4,1.9h0Z"/>
    </g>
    <g id="Maklumat">
      <path d="M1296.6,276.8c-4.2-4.8-6.3-11.4-6.3-20v-34.1h12.4v34.1c0,4.6,1,8.2,3.1,10.8,2.1,2.6,4.9,3.9,8.6,3.9s6.4-1.3,8.5-3.9,3.1-6.2,3.1-10.8v-34.1h12.4v34.1c0,8.6-2.1,15.2-6.3,20-4.2,4.8-10.1,7.2-17.8,7.2s-13.6-2.4-17.8-7.2h.1Z"/>
      <path d="M1164.1,282.7l-3.3-10.1-21.6-.2-3.7,10.3h-14.4l20.2-61.2h16.1l20.3,61.2h-13.9.3ZM1149.7,240.4l-6.7,18.9h13.1l-6.4-18.9Z"/>
      <path d="M1463,282.7l-3.3-9.9-21.6-.2-3.7,10.1h-14.4l20.2-60.1h16.1l20.3,60.1h-13.9.3ZM1448.5,241.2l-6.7,18.5h13.1l-6.4-18.5h0Z"/>
      <path d="M1398,222.8h11.2v59.9h-12.4v-37.5l-15.6,21.6h-2.4l-15.8-21.6v37.6h-12.4v-59.9h11.2l18.1,25.5,18.1-25.5h0Z"/>
      <path d="M1520.7,222.8v12.2h-16.3v47.7h-12.4v-47.7h-16.2v-12.2h44.9Z"/>
      <path d="M1246.4,222.8h12.4v47.2h26.7v12.7h-39.2v-59.9h0Z"/>
      <path d="M1236.6,282.7h-16.2l-18.7-23.8v23.8h-12.4v-59.9h12.4v23.4l17.4-23.4h15.3l-22.4,29.3,24.4,30.5h.2,0Z"/>
      <path d="M1109.2,222.8v59.9h-12.4v-37.5c-5.8,8-11.2,16.1-16.5,24.4-5.6-8.3-11.5-16.4-17.4-24.5v37.6h-12.4v-59.9h11.2l18.1,25.5,18.1-25.5h11.3Z"/>
    </g>
    <g>
      <path d="M1186.6,149.7c3.1,1.8,5.4,4.3,7.1,7.7,1.7,3.3,2.5,7.2,2.5,11.6s-.8,8.3-2.5,11.6-4,5.9-7.1,7.7-6.6,2.7-10.7,2.7h-13v17.3h-12.4v-61.2h25.4c4.1,0,7.7.9,10.7,2.7h0ZM1181.5,175.9c1.5-1.7,2.3-4,2.3-6.8s-.8-5.1-2.3-6.8-3.6-2.5-6.3-2.5h-12.4v18.7h12.4c2.6,0,4.7-.8,6.3-2.5h0Z"/>
      <path d="M1212.1,202.3c-4.2-4.9-6.3-11.7-6.3-20.4v-34.8h12.4v34.8c0,4.7,1,8.4,3.1,11,2.1,2.7,4.9,4,8.6,4s6.4-1.3,8.5-4,3.1-6.4,3.1-11v-34.8h12.4v34.8c0,8.8-2.1,15.6-6.3,20.4-4.2,4.9-10.1,7.3-17.8,7.3s-13.6-2.4-17.8-7.3h.1Z"/>
      <path d="M1273.4,207.4c-4.3-1.5-8.1-3.6-11.2-6.4l6.9-10.4c5.1,4.3,11,6.4,17.7,6.4s6.1-.6,8-1.8c2-1.2,3-2.9,3-5s-.9-3.5-2.8-4.6c-1.8-1.1-4.8-1.9-8.8-2.4-7.8-.9-13.5-2.9-17.1-5.9s-5.4-7.2-5.4-12.8,1-7,2.9-9.9,4.7-5.1,8.3-6.7c3.5-1.6,7.6-2.4,12.3-2.4s7.9.6,11.6,1.8c3.8,1.2,7.1,2.9,10,5.2l-6.3,10.1c-4.5-3.3-9.4-5-14.8-5s-6,.6-8,1.7c-2,1.2-3,2.8-3,4.7s.9,3.4,2.6,4.5,4.6,1.8,8.6,2.4c7.7.9,13.5,3,17.3,6.2s5.7,7.5,5.7,13.1-1,7.3-3,10.2-4.9,5.2-8.5,6.8-7.9,2.4-12.6,2.4-9.2-.8-13.5-2.3h.1Z"/>
      <path d="M1421,147v12.5h-16.3v48.7h-12.4v-48.7h-16.2v-12.5h44.9Z"/>
      <path d="M1361.9,208.2l-3.3-10.1-21.6-.2-3.7,10.3h-14.4l20.2-61.2h16.1l20.3,61.2h-13.9.3ZM1347.4,166l-6.7,18.9h13.1l-6.4-18.9Z"/>
    </g>
  </g>
  <g>
    <path class="st19" d="M2635.2,498.9c-3,2.6-6.2,3.9-9.3,3.9s-6-1.3-7.6-4-1.8-6-.8-10.1c1.1-4.5,3.5-8.1,7.1-11,3.1-2.5,6.5-3.7,10-3.7s3.1.3,4.4.9c1.3.6,2.2,1.3,2.6,2.3h0c.4-1.2.8-1.9,1.1-2.2.3-.3,1.1-.4,2.1-.4h1.1c1,0,1.6,0,1.9.3.3.2.4.6.2,1.2,0,.2-.2.6-.4,1.2l-5.4,14.3c-.5,1.2-.8,2.3-1.1,3.4-.3,1.3,0,1.9.7,1.9s1.1-.2,1.8-.5c1.4-.8,2.8-1.9,3.9-3.5,2.1-2.6,3.5-5.4,4.3-8.5,1.4-5.3.7-9.6-2.1-12.8-2.7-3.2-6.7-4.8-11.9-4.8s-11,2-15.9,6c-4.8,4-8,8.9-9.5,14.7-1.4,5.4-1,10.1,1.4,13.9,2.7,4.4,7.3,6.5,13.9,6.5s10-1.2,15.4-3.6c.2,0,.5-.1.7-.1.4,0,.7.1.8.4.2.2.3.8.4,1.6v.7c0,.1,0,.3.1.6v1c-.1.5-.5.9-1,1.2-.3.2-.8.4-1.5.7-5.7,2.2-11.4,3.4-17,3.4s-9.5-1.2-12.9-3.5c-3.1-2.2-5.3-5.2-6.6-9.1-1.3-4.1-1.3-8.7,0-13.5,1.3-4.9,3.6-9.4,7-13.4,3.2-3.8,7-6.8,11.4-9.1,4.8-2.4,9.6-3.6,14.6-3.6s8.9,1.2,12.3,3.5c2.8,1.9,4.7,4.5,5.7,7.8,1.1,3.4,1.1,7.2,0,11.3-1,4-2.9,7.7-5.6,11.1-2.2,2.9-4.6,4.9-7.2,6.1-1.7.8-3.3,1.2-4.7,1.2s-2.3-.3-3.2-1c-.8-.7-1.3-1.6-1.5-2.8h.3ZM2633.3,480.6c-2,0-3.8.8-5.5,2.3-1.7,1.6-2.9,3.6-3.6,6.2-.6,2.1-.5,3.9.2,5.2.7,1.4,1.8,2.1,3.4,2.1s4.2-.9,6.2-2.7c2.1-1.9,3.4-4.1,4.1-6.6.5-1.9.3-3.4-.7-4.7-1-1.2-2.3-1.9-4.2-1.9h.1Z"/>
    <path class="st19" d="M2674.6,484.5c3.6-3.5,7.5-5.2,11.7-5.2s7.9,1.8,10.1,5.4c1.9,3.1,2.2,7.1.9,11.9-1.4,5.4-4.3,9.8-8.5,13.1-3.7,2.8-7.4,4.2-11.2,4.2s-3.9-.4-5.3-1.2c-1.4-.8-2.7-2.2-3.8-4.1l-4.9,19c-.3,1.1-.6,1.9-1,2.2s-1.1.4-2.2.4h-3.8c-1.1,0-1.7-.2-1.9-.4-.2-.3-.2-1,.1-2.2l11.6-44.6c.3-1.1.6-1.9,1-2.2.4-.3,1.1-.4,2.2-.4h3.8c1.1,0,1.8.2,2,.4.2.3.2,1-.1,2.2l-.4,1.6h-.3ZM2681.7,487.5c-2.5,0-4.7.9-6.9,2.7-2.2,1.8-3.6,3.9-4.2,6.4-.6,2.5-.4,4.7.9,6.5,1.3,1.8,3.1,2.7,5.6,2.7s4.7-.9,6.9-2.7c2.2-1.8,3.6-4,4.3-6.6.6-2.5.3-4.6-1-6.3-1.2-1.8-3.1-2.7-5.5-2.7h-.1Z"/>
    <path class="st19" d="M2712.6,498c-.6,2.8-.5,4.9.4,6.4,1,1.6,2.7,2.3,5.1,2.3s5.6-1.2,7.8-3.6c.4-.5.9-.6,1.3-.6s.5,0,1.2.2l3,.6c.8.1,1.4.3,1.6.6.3.2.3.6.2,1.1s-.6,1.1-1.2,1.9c-.7.8-1.5,1.6-2.4,2.2-3.9,3.2-8.4,4.8-13.4,4.8s-5.8-.7-8.1-2c-2.7-1.6-4.3-4.1-4.9-7.4-.4-2.3-.2-4.9.6-7.8.9-3.4,2.4-6.5,4.5-9.3s4.7-4.8,7.7-6.2c2.8-1.2,5.6-1.9,8.7-1.9,4.6,0,8,1.4,10.2,4.1,1.1,1.4,1.8,3.2,2.1,5.5.3,2.2.1,4.6-.5,7-.2.9-.5,1.5-.9,1.8s-1.1.4-2.2.4h-21,.2,0ZM2729.3,492.2c0-1.6-.2-2.9-.7-3.8-1-1.8-2.7-2.7-5.2-2.7s-3.6.6-5.2,1.7c-1.6,1.1-2.8,2.8-3.8,4.8h14.9Z"/>
    <path class="st19" d="M2756.9,484.1c3.6-3.2,7.2-4.8,10.8-4.8s3.9.5,5.2,1.4c1.3,1,2.3,2.5,3,4.5,3.5-3.9,7.4-5.9,11.8-5.9s4.7.8,6.2,2.3c1,1.1,1.6,2.4,1.8,4s0,3.7-.8,6.2l-4.8,18.4c-.3,1.1-.6,1.8-1,2.2-.4.3-1.1.4-2.2.4h-3.8c-1.1,0-1.7-.2-1.9-.4-.2-.3-.1-1,.2-2.2l3.9-15.2c.6-2.3.8-4,.6-5.1-.3-1.9-1.6-2.8-3.7-2.8-4,0-6.8,3-8.4,9.1l-3.6,14.1c-.3,1.1-.6,1.8-1,2.2-.4.3-1.1.4-2.2.4h-3.8c-1.1,0-1.7-.2-1.9-.4-.2-.3-.2-1,.1-2.2l3.8-14.6c.6-2.5.9-4.3.8-5.4-.1-.9-.6-1.7-1.3-2.2-.7-.6-1.6-.9-2.7-.9s-2,.3-3.1.8c-1.1.6-1.9,1.2-2.6,2.1-1,1.2-1.9,3.3-2.6,6.2l-3.6,14.1c-.3,1.1-.6,1.8-1,2.2-.4.3-1.1.4-2.2.4h-3.8c-1.1,0-1.7-.2-1.9-.4-.2-.3-.2-1,.1-2.2l7-27.3c.3-1.1.6-1.9,1-2.2.4-.3,1.1-.4,2.2-.4h3.8c1.1,0,1.8.2,2,.4.2.3.2,1-.1,2.2l-.3,1.1h0Z"/>
    <path class="st19" d="M2824.8,508.5c-3.6,3.5-7.5,5.3-11.6,5.3s-7.9-1.8-10-5.4c-1.8-3.2-2.2-7.1-.9-12,1.4-5.5,4.3-9.8,8.5-13.1,3.7-2.8,7.4-4.1,11.2-4.1s7.1,1.7,9.1,5.2l.4-1.6c.3-1.1.6-1.8,1-2.2.4-.3,1.1-.4,2.2-.4h3.8c1.1,0,1.8.2,2,.4.2.3.2,1-.1,2.2l-7.1,27.3c-.3,1.1-.6,1.8-1,2.2-.4.3-1.1.4-2.2.4h-3.8c-1.1,0-1.8-.2-2-.4-.2-.3-.2-1,.1-2.2l.4-1.7h0ZM2822.5,487.5c-2.5,0-4.7.9-6.9,2.7-2.2,1.7-3.6,3.9-4.3,6.4s-.4,4.7.9,6.5c1.2,1.8,3.1,2.7,5.5,2.7s4.7-.9,6.9-2.7c2.2-1.8,3.6-4,4.3-6.6.6-2.5.3-4.6-.9-6.3-1.3-1.8-3.1-2.7-5.5-2.7h0Z"/>
    <path class="st19" d="M2856.7,492.2l13.4-10.7c.3-.2.5-.4.6-.5.4-.4.7-.6.9-.6h7c.9,0,1.6.1,1.9.3.3.3.4.6.2,1.2,0,.4-.7,1.1-1.7,1.8l-14,10.9,9.1,14.9c.5.8.7,1.4.6,1.8-.2.6-.5,1-.9,1.2s-1.1.3-2.1.3h-7.6c-.2,0-.5-.5-.8-1.2l-7.4-12.6-1.2.9-2.7,10.4c-.3,1.1-.6,1.8-1,2.2-.4.3-1.1.4-2.2.4h-3.8c-1.1,0-1.7-.2-1.9-.4-.2-.3-.2-1,.1-2.2l13.2-51c.3-1.1.6-1.9,1-2.2s1.1-.5,2.2-.5h3.8c1.1,0,1.8.2,2,.5s.2,1-.1,2.2l-8.5,33h-.1Z"/>
    <path class="st19" d="M2905.1,508.5c-3.6,3.5-7.5,5.3-11.6,5.3s-7.9-1.8-10-5.4c-1.8-3.2-2.2-7.1-.9-12,1.4-5.5,4.3-9.8,8.5-13.1,3.7-2.8,7.4-4.1,11.2-4.1s7.1,1.7,9.1,5.2l.4-1.6c.3-1.1.6-1.8,1-2.2.4-.3,1.1-.4,2.2-.4h3.8c1.1,0,1.8.2,2,.4.2.3.2,1-.1,2.2l-7.1,27.3c-.3,1.1-.6,1.8-1,2.2-.4.3-1.1.4-2.2.4h-3.8c-1.1,0-1.8-.2-2-.4-.2-.3-.2-1,.1-2.2l.4-1.7h0ZM2902.7,487.5c-2.5,0-4.7.9-6.9,2.7-2.2,1.7-3.6,3.9-4.3,6.4s-.4,4.7.9,6.5c1.2,1.8,3.1,2.7,5.5,2.7s4.7-.9,6.9-2.7c2.2-1.8,3.6-4,4.3-6.6.6-2.5.3-4.6-.9-6.3-1.3-1.8-3.1-2.7-5.5-2.7h0Z"/>
    <path class="st19" d="M2939,484.3c1.6-1.6,3.1-2.7,4.4-3.4,2.1-1.1,4.4-1.7,6.8-1.7,3.9,0,6.6,1.3,8.1,3.9.6,1.1,1,2.3,1,3.7s-.3,3.1-.8,5.3l-4.7,18c-.3,1.1-.6,1.8-1,2.2-.4.3-1.1.4-2.2.4h-3.8c-1.1,0-1.7-.2-1.9-.4-.2-.3-.2-1,.1-2.2l4-15.4c.6-2.5.8-4.3.5-5.3-.5-1.7-2-2.6-4.5-2.6s-4.1.7-5.6,2.2-2.6,3.8-3.4,6.8l-3.7,14.2c-.3,1.1-.6,1.8-1,2.2-.4.3-1.1.4-2.2.4h-3.8c-1.1,0-1.7-.2-1.9-.4-.2-.3-.2-1,.1-2.2l7.1-27.3c.3-1.1.6-1.9,1-2.2.4-.3,1.1-.4,2.2-.4h3.8c1.1,0,1.8.2,2,.4.2.3.2,1-.1,2.2l-.4,1.4h0v.2h-.1Z"/>
    <path class="st19" d="M2988.3,508.5c-3.6,3.5-7.5,5.3-11.6,5.3s-7.9-1.8-10-5.4c-1.8-3.2-2.2-7.1-.9-12,1.4-5.5,4.3-9.8,8.5-13.1,3.7-2.8,7.4-4.1,11.2-4.1s7.1,1.7,9.1,5.2l.4-1.6c.3-1.1.6-1.8,1-2.2.4-.3,1.1-.4,2.2-.4h3.8c1.1,0,1.8.2,2,.4.2.3.2,1-.1,2.2l-7.1,27.3c-.3,1.1-.6,1.8-1,2.2-.4.3-1.1.4-2.2.4h-3.8c-1.1,0-1.8-.2-2-.4-.2-.3-.2-1,.1-2.2l.4-1.7h0ZM2986,487.5c-2.5,0-4.7.9-6.9,2.7-2.2,1.7-3.6,3.9-4.3,6.4s-.4,4.7.9,6.5c1.2,1.8,3.1,2.7,5.5,2.7s4.7-.9,6.9-2.7c2.2-1.8,3.6-4,4.3-6.6.6-2.5.3-4.6-.9-6.3-1.3-1.8-3.1-2.7-5.5-2.7h0Z"/>
    <path class="st19" d="M3022.3,484.3c1.6-1.6,3.1-2.7,4.4-3.4,2.1-1.1,4.4-1.7,6.8-1.7,3.9,0,6.6,1.3,8.1,3.9.6,1.1,1,2.3,1,3.7s-.3,3.1-.8,5.3l-4.7,18c-.3,1.1-.6,1.8-1,2.2-.4.3-1.1.4-2.2.4h-3.8c-1.1,0-1.7-.2-1.9-.4-.2-.3-.2-1,.1-2.2l4-15.4c.6-2.5.8-4.3.5-5.3-.5-1.7-2-2.6-4.5-2.6s-4.1.7-5.6,2.2-2.6,3.8-3.4,6.8l-3.7,14.2c-.3,1.1-.6,1.8-1,2.2-.4.3-1.1.4-2.2.4h-3.8c-1.1,0-1.7-.2-1.9-.4-.2-.3-.2-1,.1-2.2l7.1-27.3c.3-1.1.6-1.9,1-2.2.4-.3,1.1-.4,2.2-.4h3.8c1.1,0,1.8.2,2,.4.2.3.2,1-.1,2.2l-.4,1.4h0v.2h-.1Z"/>
    <path class="st19" d="M3071.5,479.2c5.7,0,9.7,1.8,12.1,5.6,2.1,3.1,2.5,7.1,1.3,11.7-1.4,5.4-4.4,9.7-8.9,13-4,2.9-8.5,4.3-13.7,4.3s-6.2-.7-8.7-2.2-4.1-3.7-4.9-6.6c-.7-2.5-.6-5.4.3-8.7,1.4-5.3,4.4-9.6,9.1-12.9,2.2-1.6,4.8-2.7,7.6-3.4,2.1-.5,3.9-.8,5.7-.8h0ZM3069.3,487.5c-2.5,0-4.8.9-7,2.7-2.2,1.8-3.6,4-4.3,6.5-.6,2.4-.3,4.5,1,6.3s3.1,2.7,5.6,2.7,4.8-.9,7-2.7c2.2-1.7,3.6-3.9,4.3-6.4.6-2.6.4-4.7-.9-6.4-1.3-1.8-3.2-2.7-5.6-2.7h-.1Z"/>
    <path class="st19" d="M3105.4,484.1c3.6-3.2,7.2-4.8,10.8-4.8s3.9.5,5.3,1.4c1.3,1,2.3,2.5,3,4.5,3.5-3.9,7.5-5.9,11.8-5.9s4.7.8,6.2,2.3c1,1.1,1.6,2.4,1.8,4s0,3.7-.8,6.2l-4.8,18.4c-.3,1.1-.6,1.8-1,2.2-.4.3-1.1.4-2.2.4h-3.8c-1.1,0-1.7-.2-1.9-.4-.2-.3-.2-1,.2-2.2l3.9-15.2c.6-2.3.8-4,.6-5.1-.3-1.9-1.6-2.8-3.7-2.8-4,0-6.8,3-8.4,9.1l-3.6,14.1c-.3,1.1-.6,1.8-1,2.2-.4.3-1.1.4-2.2.4h-3.8c-1.1,0-1.7-.2-1.9-.4-.2-.3-.2-1,.1-2.2l3.8-14.6c.6-2.5.9-4.3.8-5.4-.1-.9-.6-1.7-1.3-2.2-.8-.6-1.6-.9-2.7-.9s-2,.3-3.1.8c-1.1.6-1.9,1.2-2.6,2.1-1,1.2-1.8,3.3-2.6,6.2l-3.6,14.1c-.3,1.1-.6,1.8-1,2.2-.4.3-1.1.4-2.2.4h-3.8c-1.1,0-1.7-.2-1.9-.4-.2-.3-.2-1,.1-2.2l7.1-27.3c.3-1.1.6-1.9,1-2.2.4-.3,1.1-.4,2.2-.4h3.8c1.1,0,1.8.2,2,.4.2.3.2,1-.1,2.2l-.3,1.1h-.2Z"/>
    <path class="st19" d="M3173.2,508.5c-3.6,3.5-7.5,5.3-11.6,5.3s-7.9-1.8-10-5.4c-1.8-3.2-2.2-7.1-.9-12,1.4-5.5,4.3-9.8,8.5-13.1,3.7-2.8,7.4-4.1,11.2-4.1s7.1,1.7,9.1,5.2l.4-1.6c.3-1.1.6-1.8,1-2.2.4-.3,1.1-.4,2.2-.4h3.8c1.1,0,1.8.2,2,.4.2.3.2,1-.1,2.2l-7.1,27.3c-.3,1.1-.6,1.8-1,2.2-.4.3-1.1.4-2.2.4h-3.8c-1.1,0-1.8-.2-2-.4-.2-.3-.2-1,.1-2.2l.4-1.7h0ZM3170.9,487.5c-2.5,0-4.7.9-6.9,2.7-2.2,1.7-3.6,3.9-4.3,6.4s-.4,4.7.9,6.5c1.2,1.8,3.1,2.7,5.5,2.7s4.7-.9,6.9-2.7c2.2-1.8,3.6-4,4.3-6.6.6-2.5.3-4.6-.9-6.3-1.3-1.8-3.1-2.7-5.5-2.7h0Z"/>
    <path class="st19" d="M3205.2,492.2l13.3-10.7c.3-.2.5-.4.6-.5.4-.4.7-.6.9-.6h7c.9,0,1.6.1,1.9.3.3.3.4.6.2,1.2,0,.4-.7,1.1-1.7,1.8l-14,10.9,9.1,14.9c.5.8.7,1.4.6,1.8-.2.6-.5,1-.9,1.2s-1.1.3-2.1.3h-7.6c-.2,0-.5-.5-.8-1.2l-7.4-12.6-1.2.9-2.7,10.4c-.3,1.1-.6,1.8-1,2.2-.4.3-1.1.4-2.2.4h-3.8c-1.1,0-1.7-.2-1.9-.4-.2-.3-.2-1,.1-2.2l13.2-51c.3-1.1.6-1.9,1-2.2s1.1-.5,2.2-.5h3.8c1.1,0,1.8.2,2,.5s.2,1-.1,2.2l-8.5,33h0Z"/>
    <path class="st19" d="M3255.4,508.5c-3.6,3.5-7.5,5.3-11.7,5.3s-7.9-1.8-10-5.4c-1.8-3.2-2.2-7.1-.9-12,1.4-5.5,4.3-9.8,8.5-13.1,3.6-2.8,7.4-4.1,11.2-4.1s7.1,1.7,9.1,5.2l6.5-25.3c.3-1.1.6-1.9,1-2.2s1.1-.5,2.2-.5h3.8c1.1,0,1.7.2,1.9.5s.2,1-.1,2.2l-13.2,51c-.3,1.1-.6,1.8-1,2.2-.4.3-1.1.4-2.2.4h-3.8c-1.1,0-1.7-.2-1.9-.4-.2-.3-.2-1,.1-2.2l.4-1.7h0ZM3253,487.5c-2.4,0-4.7.9-6.9,2.7-2.2,1.7-3.6,3.9-4.3,6.4s-.4,4.7.9,6.5c1.2,1.8,3.1,2.7,5.5,2.7s4.7-.9,6.9-2.7c2.2-1.8,3.6-4,4.3-6.6.6-2.5.3-4.6-.9-6.3-1.3-1.8-3.1-2.7-5.5-2.7h0Z"/>
    <path class="st19" d="M3298.3,508.5c-3.6,3.5-7.5,5.3-11.6,5.3s-7.9-1.8-10-5.4c-1.8-3.2-2.2-7.1-.9-12,1.4-5.5,4.3-9.8,8.5-13.1,3.7-2.8,7.4-4.1,11.2-4.1s7.1,1.7,9.1,5.2l.4-1.6c.3-1.1.6-1.8,1-2.2.4-.3,1.1-.4,2.2-.4h3.8c1.1,0,1.8.2,2,.4.2.3.2,1-.1,2.2l-7.1,27.3c-.3,1.1-.6,1.8-1,2.2-.4.3-1.1.4-2.2.4h-3.8c-1.1,0-1.8-.2-2-.4-.2-.3-.2-1,.1-2.2l.4-1.7h0ZM3295.9,487.5c-2.5,0-4.7.9-6.9,2.7-2.2,1.7-3.6,3.9-4.3,6.4s-.4,4.7.9,6.5c1.2,1.8,3.1,2.7,5.5,2.7s4.7-.9,6.9-2.7c2.2-1.8,3.6-4,4.3-6.6.6-2.5.3-4.6-.9-6.3-1.3-1.8-3.1-2.7-5.5-2.7h0Z"/>
    <path class="st19" d="M3332.3,484.3c1.6-1.6,3.1-2.7,4.4-3.4,2.1-1.1,4.4-1.7,6.8-1.7,3.9,0,6.6,1.3,8.1,3.9.6,1.1,1,2.3,1,3.7s-.3,3.1-.8,5.3l-4.7,18c-.3,1.1-.6,1.8-1,2.2-.4.3-1.1.4-2.2.4h-3.8c-1.1,0-1.7-.2-1.9-.4-.2-.3-.2-1,.1-2.2l4-15.4c.6-2.5.8-4.3.5-5.3-.5-1.7-2-2.6-4.5-2.6s-4.1.7-5.6,2.2-2.6,3.8-3.4,6.8l-3.7,14.2c-.3,1.1-.6,1.8-1,2.2-.4.3-1.1.4-2.2.4h-3.8c-1.1,0-1.7-.2-1.9-.4-.2-.3-.2-1,.1-2.2l7.1-27.3c.3-1.1.6-1.9,1-2.2.4-.3,1.1-.4,2.2-.4h3.8c1.1,0,1.8.2,2,.4.2.3.2,1-.1,2.2l-.4,1.4h0v.2h-.1Z"/>
    <path class="st19" d="M3381.6,508.5c-3.6,3.5-7.5,5.3-11.7,5.3s-7.9-1.8-10-5.4c-1.8-3.2-2.2-7.1-.9-12,1.4-5.5,4.3-9.8,8.5-13.1,3.7-2.8,7.4-4.1,11.2-4.1s7.1,1.7,9.1,5.2l.4-1.6c.3-1.1.6-1.8,1-2.2.4-.3,1.1-.4,2.2-.4h3.8c1.1,0,1.8.2,2,.4.2.3.2,1-.1,2.2l-7,27.3c-.3,1.1-.6,1.8-1,2.2-.4.3-1.1.4-2.2.4h-3.8c-1.1,0-1.8-.2-2-.4-.2-.3-.2-1,.1-2.2l.4-1.7h0ZM3379.2,487.5c-2.4,0-4.7.9-6.9,2.7-2.2,1.7-3.6,3.9-4.3,6.4-.6,2.5-.4,4.7.9,6.5,1.2,1.8,3.1,2.7,5.5,2.7s4.7-.9,6.9-2.7c2.2-1.8,3.6-4,4.3-6.6.6-2.5.3-4.6-.9-6.3-1.3-1.8-3.1-2.7-5.5-2.7h0Z"/>
    <path class="st19" d="M3415.5,484.3c1.6-1.6,3.1-2.7,4.4-3.4,2.1-1.1,4.4-1.7,6.8-1.7,3.9,0,6.6,1.3,8.1,3.9.6,1.1,1,2.3,1,3.7s-.3,3.1-.8,5.3l-4.7,18c-.3,1.1-.6,1.8-1,2.2-.4.3-1.1.4-2.2.4h-3.8c-1.1,0-1.7-.2-1.9-.4-.2-.3-.2-1,.1-2.2l4-15.4c.6-2.5.8-4.3.5-5.3-.5-1.7-2-2.6-4.5-2.6s-4.1.7-5.6,2.2-2.7,3.8-3.4,6.8l-3.7,14.2c-.3,1.1-.6,1.8-1,2.2-.4.3-1.1.4-2.2.4h-3.8c-1.1,0-1.7-.2-1.9-.4-.2-.3-.2-1,.1-2.2l7-27.3c.3-1.1.6-1.9,1-2.2.4-.3,1.1-.4,2.2-.4h3.8c1.1,0,1.8.2,2,.4.2.3.2,1-.1,2.2l-.4,1.4h0v.2h0Z"/>
    <path class="st19" d="M3464.8,508.5c-3.6,3.5-7.5,5.3-11.6,5.3s-7.9-1.8-10-5.4c-1.8-3.2-2.2-7.1-.9-12,1.4-5.5,4.3-9.8,8.5-13.1,3.7-2.8,7.4-4.1,11.2-4.1s7.1,1.7,9.1,5.2l.4-1.6c.3-1.1.6-1.8,1-2.2.4-.3,1.1-.4,2.2-.4h3.8c1.1,0,1.8.2,2,.4.2.3.2,1-.1,2.2l-7.1,27.3c-.3,1.1-.6,1.8-1,2.2-.4.3-1.1.4-2.2.4h-3.8c-1.1,0-1.8-.2-2-.4-.2-.3-.2-1,.1-2.2l.4-1.7h0ZM3462.5,487.5c-2.5,0-4.7.9-6.9,2.7-2.2,1.7-3.6,3.9-4.3,6.4s-.4,4.7.9,6.5c1.2,1.8,3.1,2.7,5.5,2.7s4.7-.9,6.9-2.7c2.2-1.8,3.6-4,4.3-6.6.6-2.5.3-4.6-.9-6.3-1.3-1.8-3.1-2.7-5.5-2.7h0Z"/>
    <path class="st19" d="M3496.8,492.2l13.4-10.7c.3-.2.5-.4.6-.5.4-.4.7-.6.9-.6h7c.9,0,1.6.1,1.9.3.3.3.4.6.2,1.2,0,.4-.7,1.1-1.7,1.8l-14,10.9,9.1,14.9c.5.8.7,1.4.6,1.8-.2.6-.5,1-.9,1.2s-1.1.3-2.1.3h-7.6c-.2,0-.5-.5-.8-1.2l-7.4-12.6-1.2.9-2.7,10.4c-.3,1.1-.6,1.8-1,2.2-.4.3-1.1.4-2.2.4h-3.8c-1.1,0-1.7-.2-1.9-.4-.2-.3-.2-1,.1-2.2l13.2-51c.3-1.1.6-1.9,1-2.2s1.1-.5,2.2-.5h3.8c1.1,0,1.8.2,2,.5s.2,1-.1,2.2l-8.5,33h-.1Z"/>
  </g>
  <g>
    <path class="st11" d="M3040.6,319.7c0-53.8-43.7-97.5-97.5-97.5s-97.5,43.7-97.5,97.5,35.7,89,82.3,96.3v-68.1h-24.7v-28.2h24.7v-21.5c0-24.4,14.6-37.9,36.8-37.9s21.8,1.9,21.8,1.9v24h-12.3c-12.1,0-15.9,7.5-15.9,15.2v18.3h27l-4.3,28.2h-22.7v68.1c46.6-7.3,82.3-47.7,82.3-96.3h0Z"/>
    <path class="st7" d="M2981.1,347.9l4.3-28.2h-27v-18.3c0-7.7,3.8-15.2,15.9-15.2h12.3v-24s-11.2-1.9-21.8-1.9c-22.3,0-36.8,13.5-36.8,37.9v21.5h-24.7v28.2h24.7v68.1c5,.8,10.1,1.2,15.2,1.2s10.3-.4,15.2-1.2v-68.1h22.7Z"/>
  </g>
  <g>
    <circle class="st2" cx="3423.5" cy="319.7" r="97.5"/>
    <path class="st18" d="M3392,326.8l11.6,32s1.4,3,3,3,24.6-24,24.6-24l25.6-49.5-64.3,30.2-.4,8.3h-.1Z"/>
    <path class="st17" d="M3407.4,335l-2.2,23.6s-.9,7.2,6.3,0,14.1-12.8,14.1-12.8l-18.2-10.8h0Z"/>
    <path class="st7" d="M3392.3,327.9l-23.8-7.8s-2.8-1.1-1.9-3.8c.2-.6.6-1,1.7-1.8,5.3-3.7,97.6-36.9,97.6-36.9,0,0,2.6-.9,4.1-.3.7.3,1.1.6,1.5,1.7.1.4.2,1.2.2,2.1s0,1.2-.1,2.1c-.6,9.1-17.4,76.8-17.4,76.8,0,0-1,4-4.6,4.1-1.3,0-2.9-.2-4.8-1.9-7.1-6.1-31.5-22.5-36.9-26.1-.3-.2-.4-.5-.5-.7,0-.4.3-.9.3-.9,0,0,42.6-37.9,43.7-41.8,0-.3-.2-.5-.7-.3-2.8,1-51.9,32-57.3,35.4-.3.2-1.2,0-1.2,0h0Z"/>
  </g>
  <g>
    <path d="M2702.6,417.2h0c-6.7,0-13.3-.7-19.6-2s-12.5-3.2-18.3-5.7-11.4-5.5-16.6-9c-5.2-3.5-10-7.5-14.4-11.9s-8.4-9.2-11.9-14.4c-3.5-5.2-6.5-10.7-9-16.6-2.5-5.8-4.4-12-5.7-18.3s-2-12.9-2-19.6h0c0-6.7.7-13.3,2-19.6,1.3-6.3,3.2-12.5,5.7-18.3s5.5-11.4,9-16.6,7.5-10,11.9-14.4,9.2-8.4,14.4-11.9,10.7-6.5,16.6-9c5.8-2.5,12-4.4,18.3-5.7s12.9-2,19.6-2h0c6.7,0,13.3.7,19.6,2s12.5,3.2,18.3,5.7,11.4,5.5,16.6,9c5.2,3.5,10,7.5,14.4,11.9s8.4,9.2,11.9,14.4c3.5,5.2,6.5,10.7,9,16.6,2.5,5.8,4.4,12,5.7,18.3s2,12.9,2,19.6h0c0,6.7-.7,13.3-2,19.6-1.3,6.3-3.2,12.5-5.7,18.3s-5.5,11.4-9,16.6-7.5,10-11.9,14.4-9.2,8.4-14.4,11.9-10.7,6.5-16.6,9c-5.8,2.5-12,4.4-18.3,5.7-6.3,1.3-12.9,2-19.6,2Z"/>
    <path class="st7" d="M2702.9,375.8c-2.8,0-5.6-.2-8.2-.6-2.7-.4-5.2-.9-7.7-1.7s-4.9-1.7-7.2-2.8c-2.3-1.1-4.5-2.4-6.5-3.9s-4-3.1-5.7-5-3.4-3.9-4.9-6.1-2.8-4.6-3.9-7.2-2.1-5.3-2.8-8.3c-.4-1.7-.8-3.4-1.1-5-.3-1.7-.6-3.4-.7-5.1-.2-1.7-.3-3.4-.4-5.1s-.1-3.4-.1-5,0-3.3.1-4.9c0-1.6.2-3.1.3-4.6s.3-2.9.5-4.3.4-2.7.6-3.9c.3-1.3.6-2.8,1-4.2.4-1.5.9-3,1.5-4.5s1.2-3,2-4.6c.7-1.5,1.5-3,2.4-4.5s1.9-2.9,2.9-4.4,2.2-2.8,3.4-4,2.5-2.4,3.9-3.5,2.9-2.1,4.5-2.9c1.7-.9,3.3-1.7,5-2.4s3.4-1.3,5.2-1.8c1.7-.5,3.5-.9,5.2-1.2,1.7-.3,3.4-.6,5.1-.7,1.7-.2,3.4-.3,5-.3h4.7c1.5,0,3,.2,4.3.4,1.4.2,2.7.4,3.8.6,1.5.3,2.9.7,4.4,1.1,1.4.4,2.8.9,4,1.3,1.3.5,2.6,1,3.8,1.6s2.4,1.2,3.5,1.9,2.2,1.4,3.3,2.2,2.1,1.6,3,2.4c1,.9,1.9,1.8,2.8,2.7s1.7,2,2.6,3c.9,1.1,1.7,2.2,2.4,3.4.7,1.1,1.4,2.2,1.9,3.3s1.1,2.1,1.6,3.1.8,1.9,1.2,2.8.6,1.7.9,2.4c.2.7.4,1.3.6,1.9.1.5.2.9.3,1.2s.1.5.1.5l-1.2.2-1.2.2-1.2.2-1.2.2-1.2.2-1.2.2-1.2.2-1.2.2h.6c0-.1.6-.2.6-.2h.6c0-.1.6-.2.6-.2h.6c0-.1.6-.2.6-.2h.6c0-.1.6-.2.6-.2h-.6c0,.1-.6.2-.6.2h-.6c0,.1-.6.2-.6.2h-.6c0,.1-.6.2-.6.2h-.6c0,.1-.6.2-.6.2v-.4c0-.2-.1-.5-.3-.9s-.3-.9-.5-1.4-.4-1.2-.7-1.8-.6-1.4-.9-2.2c-.4-.8-.8-1.6-1.2-2.4-.5-.8-1-1.7-1.6-2.6s-1.2-1.8-1.9-2.7c-.6-.8-1.3-1.7-2-2.4-.7-.8-1.4-1.5-2.2-2.2s-1.6-1.3-2.4-1.9-1.7-1.1-2.6-1.7c-.9-.5-1.8-1-2.8-1.5s-2-.9-3-1.3c-1.1-.4-2.1-.7-3.3-1.1-1.1-.3-2.3-.6-3.5-.9-1.1-.2-2.2-.4-3.4-.6s-2.4-.3-3.7-.3h-4c-1.4,0-2.8.1-4.2.3-1.4.1-2.8.4-4.2.6-1.4.3-2.8.6-4.2,1s-2.8.9-4.1,1.4c-1.3.6-2.7,1.1-3.9,1.8-1.3.7-2.5,1.5-3.6,2.4s-2.2,1.9-3.2,3-1.9,2.2-2.7,3.4-1.6,2.4-2.3,3.6-1.3,2.5-1.8,3.7-1,2.4-1.4,3.6-.8,2.3-1.1,3.4-.5,2-.7,2.9c-.2,1-.4,2.1-.6,3.3-.2,1.2-.3,2.4-.5,3.8-.1,1.3-.2,2.7-.3,4.1,0,1.4-.1,2.9-.1,4.4v4.5c0,1.5.2,3.1.3,4.6.2,1.5.4,3.1.6,4.6.3,1.5.6,3,1,4.5s.8,2.9,1.3,4.3,1.1,2.7,1.7,3.9,1.3,2.4,2,3.6c.7,1.1,1.5,2.2,2.3,3.3.8,1,1.7,2,2.7,2.9s1.9,1.8,3,2.6,2.2,1.5,3.3,2.2,2.4,1.3,3.6,1.9c1.4.6,2.9,1.2,4.4,1.6,1.5.5,3,.8,4.5,1.1,1.5.3,3.1.5,4.6.6s3,.2,4.5.2,2.9,0,4.4-.2c1.4-.1,2.8-.3,4.1-.5s2.6-.5,3.8-.7,2.3-.6,3.4-.9,2.1-.7,3.1-1.2,2-1,2.9-1.6,1.9-1.2,2.8-1.9,1.7-1.4,2.5-2.2,1.5-1.6,2.2-2.4,1.3-1.7,1.8-2.6,1-1.8,1.4-2.7c.4-.9.7-1.8.9-2.7.3-1.2.5-2.3.6-3.4,0-1.1.1-2.2,0-3.2s-.2-2-.4-3-.5-1.9-.9-2.8-.8-1.7-1.4-2.5-1.1-1.6-1.8-2.3-1.4-1.4-2.2-2-1.7-1.2-2.6-1.7c-.2,1.3-.4,2.5-.7,3.8-.3,1.2-.6,2.4-1,3.5s-.8,2.2-1.3,3.2-1,2-1.6,2.9-1.2,1.8-1.9,2.6-1.4,1.6-2.2,2.2c-.8.7-1.6,1.3-2.4,1.9-.9.6-1.7,1.1-2.7,1.5-1.4.6-2.8,1.1-4.3,1.5s-3,.6-4.5.7-3,0-4.5-.1-2.9-.5-4.4-.8c-1.4-.4-2.8-.9-4.1-1.5s-2.5-1.3-3.6-2.2c-1.1-.8-2.1-1.7-3-2.8-.9-1-1.7-2.1-2.2-3.3-.3-.7-.6-1.3-.9-2-.2-.7-.5-1.4-.6-2.1s-.3-1.4-.4-2.2v-2.2c0-.8,0-1.4.2-2.2s.2-1.4.4-2.1.4-1.4.7-2c.3-.7.6-1.3,1-1.9.2-.4.6-.9.9-1.4s.8-1,1.2-1.5c.5-.5,1-1.1,1.6-1.6s1.3-1,2-1.5c.8-.5,1.6-1,2.5-1.4s1.9-.8,3-1.2,2.3-.6,3.6-.9c1.3-.2,2.7-.4,4.2-.5h8.2c.6,0,1.3,0,1.9.1s1.2,0,1.9.2c.6,0,1.2.1,1.8.2.6,0,1.2.2,1.8.3-.1-.7-.3-1.5-.5-2.2s-.4-1.5-.7-2.2-.6-1.5-1-2.2-.8-1.4-1.3-2-1.1-1.2-1.7-1.7c-.6-.5-1.3-1-2.1-1.4s-1.7-.7-2.6-1-2-.4-3.1-.4h-2.9c-.9,0-1.7.2-2.5.4s-1.5.4-2.2.6-1.3.5-1.8.8c-.6.3-1.1.6-1.5,1-.5.4-.9.7-1.3,1.1-.4.4-.7.8-1,1.1-.3.4-.6.8-.8,1.1l-1-.6-1-.6-1-.6-1-.6-1-.6-1-.6-1-.6-1-.6c.3-.4.6-.9,1-1.5s.9-1.1,1.4-1.7c.6-.6,1.2-1.2,1.9-1.9s1.5-1.2,2.4-1.8c.9-.6,1.9-1.1,3-1.6s2.3-.9,3.6-1.3,2.7-.6,4.2-.8c1.5-.2,3.2-.2,4.9-.2s3.2.3,4.7.6,2.9.8,4.2,1.4,2.6,1.3,3.7,2.2c1.1.9,2.2,1.8,3.2,2.9s1.9,2.3,2.6,3.6,1.5,2.7,2,4.3c.6,1.5,1,3.1,1.4,4.9.3,1.7.6,3.5.7,5.4,1.8.7,3.5,1.6,5,2.5,1.6.9,3,2,4.3,3.1s2.5,2.3,3.5,3.7c1,1.3,1.9,2.7,2.7,4.1.8,1.5,1.4,3,1.8,4.5.5,1.6.8,3.2,1,4.9.2,1.7.2,3.4,0,5.2-.1,1.8-.4,3.6-.8,5.4-.3,1.3-.7,2.7-1.3,3.9-.5,1.3-1.2,2.6-1.9,3.8s-1.6,2.5-2.5,3.6-1.9,2.3-3,3.4-2.2,2.1-3.4,3c-1.2,1-2.4,1.8-3.7,2.7s-2.7,1.6-4,2.2-2.8,1.2-4.3,1.7c-.6.2-1.3.4-2,.6s-1.4.4-2.1.6c-.7.2-1.5.3-2.2.5s-1.5.3-2.3.4l-2.4.3c-.8,0-1.7.2-2.5.2s-1.7.1-2.6.1h-2.6l.3.5h0ZM2707.6,321.1h-2.2c-.7,0-1.5,0-2.2.1s-1.5.1-2.2.2-1.5.2-2.2.4c-.7.2-1.4.4-2.1.6s-1.3.6-1.9.9c-.6.4-1.1.8-1.6,1.2-.5.5-.9,1-1.2,1.6-.2.3-.3.6-.4.9-.1.3-.2.6-.3.9,0,.3-.1.6-.2,1v2c0,.3,0,.6.2,1,0,.3.2.6.3,1,.1.3.2.6.4.9.3.6.7,1.2,1.2,1.7s1.1,1,1.7,1.4c.7.4,1.4.8,2.2,1.1.8.3,1.6.6,2.5.8s1.7.3,2.6.4,1.8,0,2.7,0,1.8-.2,2.6-.4c.9-.2,1.7-.5,2.5-.8.6-.3,1.2-.6,1.7-1,.6-.4,1.1-.8,1.6-1.3s1-1,1.4-1.6.8-1.2,1.2-1.9c.4-.7.7-1.4,1-2.2.3-.8.6-1.6.8-2.4.2-.9.4-1.7.6-2.7s.3-1.9.4-2.9c-.4,0-.8-.2-1.2-.2s-.8-.1-1.3-.2c-.4,0-.9-.1-1.3-.2-.5,0-.9,0-1.4-.1-.5,0-.9,0-1.4-.1h-4.5Z"/>
  </g>
  <g>
    <g>
      <g>
        <g>
          <path d="M1849.5,343.1h8.9c2.7,0,4.8.4,6.3,1.1s2.8,2.3,3.8,4.9c1,2.5,1.5,5.6,1.5,9.4s-.4,6.6-1.2,8.9-2,4-3.4,5.1-3.7,1.6-6.7,1.6h-2.4v18.1h-6.8v-49.1h0ZM1856.3,351.1v14.6h2.1c1.9,0,3.1-.7,3.6-2.1s.8-3.1.8-5.3-.2-3.4-.6-4.5-.9-1.9-1.5-2.2-1.3-.5-2.3-.5h-2.1Z"/>
          <path d="M1877.6,343.1h18.9v8.4h-12v11.4h9.4v8.4h-9.4v12.1h12v8.8h-18.9v-49.1h0Z"/>
          <path d="M1904.1,343.1h10l4.4,30.3,4.9-30.3h9.7v49.1h-6.4v-41.1l-6.3,41.1h-5l-5.8-41.1v41.1h-5.6v-49.1h.1Z"/>
          <path d="M1948.7,343.1h6.9l8.9,49.1h-7l-1.6-10.1h-8.7l-1.5,10.1h-6.3l9.3-49.1h0ZM1954.6,373.7l-3.1-20.1-3,20.1h6.2,0Z"/>
          <path d="M1971.3,343.1h6.8v20.5l7.5-20.5h6.9l-7.8,18,8.4,31h-7.1l-5.5-22.6-2.6,5.9v16.7h-6.8v-49.1h.2Z"/>
          <path d="M2005.6,343.1h6.9l8.9,49.1h-7l-1.6-10.1h-8.7l-1.5,10.1h-6.3l9.3-49.1h0ZM2011.5,373.7l-3.1-20.1-3,20.1h6.2,0Z"/>
          <path d="M2028,343.1h7.6l8,30.5v-30.5h5.3v49.1h-6.1l-9.5-35.5v35.5h-5.3v-49.1h0Z"/>
          <path d="M2065,343.1h6.9l8.9,49.1h-7l-1.6-10.1h-8.7l-1.5,10.1h-6.3l9.3-49.1h0ZM2070.9,373.7l-3.1-20.1-3,20.1h6.2,0Z"/>
          <path d="M2087.4,343.1h7.6l8,30.5v-30.5h5.3v49.1h-6.1l-9.5-35.5v35.5h-5.3v-49.1Z"/>
        </g>
        <polygon points="1849.5 392.2 1846.5 389.1 1850.3 388.2 1849.5 392.2"/>
        <path d="M1857.4,340.1s10.2-.8,12.3,13.5l-12.3-13.5Z"/>
        <polygon points="1877.6 392.2 1874.6 389.1 1878.2 387.5 1877.6 392.2"/>
        <polygon points="1896.4 383.4 1893.4 380.4 1893 383.8 1896.4 383.4"/>
        <polygon points="1893.7 362.9 1890.8 359.9 1889.9 363 1893.7 362.9"/>
        <polygon points="1896.4 343.1 1893.4 340.1 1892.2 344.4 1896.4 343.1"/>
        <polygon points="1904.1 392.2 1901 389.1 1904.2 386 1904.1 392.2"/>
        <polygon points="1914.1 343.1 1911.1 340.1 1911 346.1 1914.1 343.1"/>
        <polygon points="1915.4 392.2 1912.4 389.1 1915.8 387.7 1915.4 392.2"/>
        <polygon points="1926.7 392.2 1923.7 389.1 1926.8 386 1926.7 392.2"/>
        <polygon points="1933.1 343.1 1930.1 340.1 1928.9 344.4 1933.1 343.1"/>
        <polygon points="1939.4 392.2 1936.4 389.1 1941.2 385.6 1939.4 392.2"/>
        <polygon points="1957.5 392.2 1954.4 389.1 1957.9 385.6 1957.5 392.2"/>
        <polygon points="1955.6 343.1 1952.6 340.1 1951.9 344.4 1955.6 343.1"/>
        <polygon points="1971.3 392.2 1968.3 389.1 1972.5 386.1 1971.3 392.2"/>
        <polygon points="1986.2 392.2 1983.2 389.1 1987.5 386.1 1986.2 392.2"/>
        <polygon points="1992.5 343.1 1989.6 340.1 1986.5 343.3 1990.3 344.6 1992.5 343.1"/>
        <polygon points="1978.1 343.1 1975.1 340.1 1973.8 345.3 1978.1 343.1"/>
        <polygon points="1996.3 392.2 1993.3 389.1 1998 387.5 1996.3 392.2"/>
        <polygon points="2014.4 392.2 2011.4 389.1 2015.1 386 2014.4 392.2"/>
        <polygon points="2012.5 343.1 2009.5 340.1 2009.7 344.9 2012.5 343.1"/>
        <polygon points="2028 392.2 2025 389.1 2028.7 387.1 2028 392.2"/>
        <polygon points="2035.5 343.1 2032.5 340.1 2032.6 344.2 2035.5 343.1"/>
        <polygon points="2045.8 340.1 2048.8 343.1 2045.5 345.2 2045.8 340.1"/>
        <polygon points="2042.7 392.2 2039.7 389.1 2042.9 386.9 2042.7 392.2"/>
        <polygon points="2055.7 392.2 2052.7 389.1 2057.1 386.4 2055.7 392.2"/>
        <polygon points="2071.9 343.1 2068.9 340.1 2069 343.9 2071.9 343.1"/>
        <polygon points="2073.8 392.2 2070.8 389.1 2074.5 386.8 2073.8 392.2"/>
        <polygon points="2087.4 392.2 2084.4 389.1 2088.7 387.1 2087.4 392.2"/>
        <polygon points="2095 343.1 2091.9 340.1 2091.2 344.1 2095 343.1"/>
        <polygon points="2105.2 340.1 2108.2 343.1 2104.7 345.8 2105.2 340.1"/>
        <polygon points="2102.1 392.2 2099.1 389.1 2103.3 386 2102.1 392.2"/>
        <g>
          <path class="st34" d="M1846.5,340.1h8.9c2.7,0,4.8.4,6.3,1.1s2.8,2.3,3.8,4.9c1,2.5,1.5,5.6,1.5,9.4s-.4,6.6-1.2,8.9-2,4-3.4,5.1-3.7,1.6-6.7,1.6h-2.4v18.1h-6.8v-49.1h0ZM1853.3,348v14.6h2.1c1.9,0,3.1-.7,3.6-2.1s.8-3.1.8-5.3-.2-3.4-.6-4.5-.9-1.9-1.5-2.2-1.3-.5-2.3-.5h-2.1Z"/>
          <path class="st34" d="M1874.6,340.1h18.9v8.4h-12v11.4h9.4v8.4h-9.4v12.1h12v8.8h-18.9v-49.1h0Z"/>
          <path class="st34" d="M1901,340.1h10l4.4,30.3,4.9-30.3h9.7v49.1h-6.4v-41.1l-6.3,41.1h-5l-5.8-41.1v41.1h-5.6v-49.1h.1Z"/>
          <path class="st34" d="M1945.7,340.1h6.9l8.9,49.1h-7l-1.6-10.1h-8.7l-1.5,10.1h-6.3l9.3-49.1h0ZM1951.6,370.6l-3.1-20.1-3,20.1h6.2,0Z"/>
          <path class="st34" d="M1968.3,340.1h6.8v20.5l7.5-20.5h6.9l-7.8,18,8.4,31h-7.1l-5.5-22.6-2.6,5.9v16.7h-6.8v-49.1h.2Z"/>
          <path class="st34" d="M2002.6,340.1h6.9l8.9,49.1h-7l-1.6-10.1h-8.7l-1.5,10.1h-6.3l9.3-49.1h0ZM2008.6,370.6l-3.1-20.1-3,20.1h6.2,0Z"/>
          <path class="st34" d="M2025,340.1h7.6l8,30.5v-30.5h5.3v49.1h-6.1l-9.5-35.5v35.5h-5.3v-49.1Z"/>
          <path class="st34" d="M2062,340.1h6.9l8.9,49.1h-7l-1.6-10.1h-8.7l-1.5,10.1h-6.3l9.3-49.1h0ZM2068,370.6l-3.1-20.1-3,20.1h6.2,0Z"/>
          <path class="st34" d="M2084.4,340.1h7.6l8,30.5v-30.5h5.3v49.1h-6.1l-9.5-35.5v35.5h-5.3v-49.1Z"/>
        </g>
      </g>
      <g>
        <g>
          <path d="M1867.6,429.5c0,15.3-3.5,23-10.6,23s-6.2-2-7.9-5.9c-1.8-3.9-2.7-9.6-2.7-17.1,0-15.3,3.5-23,10.6-23s6.1,1.9,7.9,5.7c1.8,3.8,2.7,9.6,2.7,17.2h0ZM1860.8,429.5c0-6-.3-10-.9-12s-1.6-3-2.9-3-2.3,1-2.9,3-.9,6-.9,12,.3,9.9.9,11.9c.6,2.1,1.6,3.1,2.9,3.1s2.3-1,2.9-3,.9-6,.9-12.1h0Z"/>
          <path d="M1876.1,407.2h9.4l4.1,27.6,4.6-27.6h9.1v44.6h-6v-37.4l-6,37.4h-4.7l-5.5-37.4v37.4h-5.2v-44.6h.2Z"/>
          <path d="M1918,407.2h6.5l8.3,44.6h-6.6l-1.5-9.2h-8.2l-1.4,9.2h-5.9l8.8-44.6h0ZM1923.6,434.9l-2.9-18.3-2.8,18.3h5.8,0Z"/>
          <path d="M1939.3,407.2h6.4v18.6l7.1-18.6h6.5l-7.3,16.4,7.9,28.2h-6.6l-5.1-20.5-2.4,5.4v15.2h-6.4v-44.6h0Z"/>
        </g>
        <polygon points="1959.3 407.2 1956.8 405.3 1954.9 407.5 1959.3 407.2"/>
        <polygon points="1945.7 407.2 1943.2 405.3 1942.1 408.8 1945.7 407.2"/>
        <polygon points="1939.3 451.8 1936.8 449.9 1940.2 447.7 1939.3 451.8"/>
        <polygon points="1953.2 451.8 1950.8 449.9 1953.2 447.9 1953.2 451.8"/>
        <polygon points="1926.3 451.8 1923.8 449.9 1926.9 448 1926.3 451.8"/>
        <polygon points="1924.5 407.2 1922 405.3 1921.9 407.9 1924.5 407.2"/>
        <polygon points="1909.3 451.8 1906.8 449.9 1910 448.1 1909.3 451.8"/>
        <polygon points="1897.3 451.8 1894.8 449.9 1898.5 448.2 1897.3 451.8"/>
        <polygon points="1903.3 407.2 1900.9 405.3 1900 407.9 1903.3 407.2"/>
        <polygon points="1886.7 451.8 1884.2 449.9 1887.3 447.9 1886.7 451.8"/>
        <polygon points="1885.5 407.2 1883 405.3 1882.5 408.4 1885.5 407.2"/>
        <polygon points="1876.1 451.8 1873.6 449.9 1876.9 448.7 1876.1 451.8"/>
        <path d="M1853.7,404.6s10.5-1.7,13,14.2l-13-14.2Z"/>
        <path d="M1844.8,438.5s1.7,14.1,12.6,14l-12.6-14Z"/>
        <g>
          <path class="st25" d="M1865.1,427.6c0,15.3-3.5,23-10.6,23s-6.2-2-7.9-5.9c-1.8-3.9-2.7-9.6-2.7-17.1,0-15.3,3.5-23,10.6-23s6.1,1.9,7.9,5.7c1.8,3.8,2.7,9.6,2.7,17.2h0ZM1858.3,427.6c0-6-.3-10-.9-12s-1.6-3-2.9-3-2.3,1-2.9,3-.9,6-.9,12,.3,9.9.9,11.9c.6,2.1,1.6,3.1,2.9,3.1s2.3-1,2.9-3,.9-6,.9-12.1h0Z"/>
          <path class="st25" d="M1873.6,405.3h9.4l4.1,27.6,4.6-27.6h9.1v44.6h-6v-37.4l-6,37.4h-4.7l-5.5-37.4v37.4h-5.2v-44.6h.2Z"/>
          <path class="st25" d="M1915.5,405.3h6.5l8.3,44.6h-6.6l-1.5-9.2h-8.2l-1.4,9.2h-5.9l8.8-44.6h0ZM1921.1,433.1l-2.9-18.3-2.8,18.3h5.8,0Z"/>
          <path class="st25" d="M1936.8,405.3h6.4v18.6l7.1-18.6h6.5l-7.3,16.4,7.9,28.2h-6.6l-5.1-20.5-2.4,5.4v15.2h-6.4v-44.6h0Z"/>
        </g>
        <path d="M1853.8,440.5s.8,2.7,2.6,1c0,0-.9,1.5-2.8.9l.2-1.9h0Z"/>
      </g>
      <g>
        <g>
          <path d="M2004.8,407.7h7l9.1,44.6h-7.1l-1.6-9.2h-8.9l-1.6,9.2h-6.4l9.5-44.6ZM2010.8,435.4l-3.2-18.3-3.1,18.3h6.3,0Z"/>
          <path d="M2027.6,407.7h7.7l8.2,27.7v-27.7h5.4v44.6h-6.2l-9.7-32.3v32.3h-5.4v-44.6Z"/>
          <path d="M2065.5,407.7h7l9.1,44.6h-7.1l-1.6-9.2h-8.9l-1.6,9.2h-6.4l9.5-44.6ZM2071.6,435.4l-3.2-18.3-3.1,18.3h6.3Z"/>
          <path d="M2088.7,407.7h7v18.6l7.7-18.6h7.1l-8,16.4,8.6,28.2h-7.2l-5.6-20.5-2.6,5.4v15.1h-7v-44.6h0Z"/>
        </g>
        <polygon points="1995.2 452.3 1992.8 449.4 1998 445.3 1995.2 452.3"/>
        <polygon points="2013.7 452.3 2011.3 449.4 2013.9 446.8 2013.7 452.3"/>
        <polygon points="2011.8 407.7 2009.3 404.9 2009.2 409.4 2011.8 407.7"/>
        <polygon points="2027.6 452.3 2025.2 449.4 2028.9 447.2 2027.6 452.3"/>
        <polygon points="2032.9 404.9 2035.4 407.7 2033.3 409.2 2032.9 404.9"/>
        <polygon points="2048.9 407.7 2046.5 404.9 2045.4 409.8 2048.9 407.7"/>
        <polygon points="2042.7 452.3 2040.2 449.4 2043.4 447.4 2042.7 452.3"/>
        <polygon points="2056 452.3 2053.5 449.4 2057.6 447.1 2056 452.3"/>
        <polygon points="2072.6 407.7 2070.1 404.9 2069.3 408.6 2072.6 407.7"/>
        <polygon points="2074.5 452.3 2072 449.4 2075.1 446.9 2074.5 452.3"/>
        <polygon points="2088.7 452.3 2086.2 449.4 2090.4 446 2088.7 452.3"/>
        <polygon points="2103.9 452.3 2101.4 449.4 2103.6 447.7 2103.9 452.3"/>
        <polygon points="2110.4 407.7 2107.9 404.9 2104.8 407.7 2110.4 407.7"/>
        <polygon points="2095.6 407.7 2093.2 404.9 2091.9 408.8 2095.6 407.7"/>
        <g>
          <path class="st25" d="M2002.3,404.9h7l9.1,44.6h-7.1l-1.6-9.2h-8.9l-1.6,9.2h-6.4l9.5-44.6ZM2008.4,432.6l-3.2-18.3-3.1,18.3h6.3,0Z"/>
          <path class="st25" d="M2025.2,404.9h7.7l8.2,27.7v-27.7h5.4v44.6h-6.2l-9.7-32.3v32.3h-5.4v-44.6Z"/>
          <path class="st25" d="M2063.1,404.9h7l9.1,44.6h-7.1l-1.6-9.2h-8.9l-1.6,9.2h-6.4l9.5-44.6ZM2069.1,432.6l-3.2-18.3-3.1,18.3h6.3Z"/>
          <path class="st25" d="M2086.2,404.9h7v18.6l7.7-18.6h7.1l-8,16.4,8.6,28.2h-7.2l-5.6-20.5-2.6,5.4v15.1h-7v-44.6h0Z"/>
        </g>
      </g>
      <g>
        <path class="st6" d="M1973.9,428.6c-1.1-2.8-1.6-5-1.6-6.6s.7-3.3,2.1-4.2c1.4-.9,2.7-1.4,4.1-1.4s1.7.3,2.4.9c.7.6,1,1.5,1,2.6s-.2,1.6-.6,2.3-1.4,1.7-2.8,3c-.8.7-1.4,1.2-1.9,1.7,1.4,3.1,2.5,5.4,3.2,6.9.9-2,1.5-4.3,1.8-6.9h5.4v1.1c-2.5,0-4.7,2.2-6.7,6.7,2,3.7,3.5,5.6,4.4,5.6s1.4-1.1,2.4-3.3l.6.4c-1,2.6-1.8,4.4-2.4,5.2s-1.1,1.2-1.6,1.2c-1.2,0-2.9-1.9-5.1-5.7-1.3,2.3-2.4,3.8-3.2,4.5-.8.8-1.6,1.1-2.4,1.1s-2-.6-2.8-1.8-1.1-2.5-1.1-4c0-2.8,1.7-5.9,5-9.3h-.2ZM1974.2,429.5c-1.7,2.3-2.5,4.6-2.5,6.8s.3,2.4.8,3.2,1.1,1.3,1.9,1.3,2.3-1.1,3.6-3.4c-1.7-3.1-2.9-5.7-3.8-7.9h0ZM1976.2,426.1c1.3-1.6,2.1-2.8,2.5-3.6.4-.8.6-1.6.6-2.5s-.2-1.3-.5-1.7c-.4-.5-.8-.7-1.5-.7s-1.3.3-1.8,1-.7,1.5-.7,2.5.4,2.8,1.3,5.1h0Z"/>
        <polygon class="st6" points="1986.9 426.9 1986.4 426.3 1986.2 427.3 1986.9 426.9"/>
        <path class="st6" d="M1977.9,415.8s2.7-.2,3.7,2.7l-3.7-2.7Z"/>
        <polygon class="st6" points="1987.3 436.5 1987.6 437.4 1986.7 437.3 1987.3 436.5"/>
        <path class="st6" d="M1968.9,440s1,3.6,3.6,3.7l-3.6-3.7Z"/>
        <path class="st6" d="M1975.7,439.2s-3.3,2.1-3.9-1.9l-.5,2s2.6,2.6,4.4,0h0Z"/>
        <path d="M1986.6,436.2v.3c-1.1,2.2-1.9,3.3-2.5,3.3-.9,0-2.4-1.9-4.4-5.6,2-4.5,4.2-6.7,6.7-6.7v-1.1h-5.4c-.3,2.6-.8,4.5-1.7,6.4-.7-1.5-1.9-3.3-3.3-6.4.5-.5,1.1-1,1.9-1.7,1.5-1.3,2.4-2.3,2.8-3s.6-1.5.6-2.3-.3-2-1-2.6-1.5-.9-2.4-.9c-1.3,0-2.7.5-4.1,1.4s-2.1,2.3-2.1,4.2.6,3.8,1.6,6.6c-3.4,3.5-5,6.6-5,9.3s.4,2.8,1.1,4c.8,1.2,1.7,1.8,2.8,1.8s1.7-.4,2.4-1.1c.8-.8,1.9-2.3,3.2-4.5,2.2,3.8,3.9,5.7,5.1,5.7s1-.4,1.6-1.2c.6-.8,1.4-2.5,2.4-5.2v-.3l-.5-.4h.2ZM1975,417.9c.5-.7,1-1,1.8-1s1.1.2,1.5.7.5,1.1.5,1.7-.2,1.7-.6,2.5-1.2,2-2.5,3.6c-.9-2.2-1.3-3.9-1.3-5.1s.2-1.8.6-2.5h0ZM1973.9,440.1c-.8,0-1.4-.4-1.9-1.2-.5-.8-.8-1.9-.8-3.2,0-2.2.8-4.5,2.5-6.8.9,2.2,2.2,4.8,3.8,7.9-1.3,2.2-2.5,3.4-3.6,3.4h0Z"/>
      </g>
    </g>
    <path class="st13" d="M2216.6,384.2c-.1,1.8-.4,3.6-.6,5.5-.1,1.2-.7,2.1-1.6,2.9-.3.3-.6.6-1,.9-.3.2-.7.3-1.1.3s-.6-.2-.5-.6c.2-.9.1-1.8,0-2.8-.3-.9,0-1.9-.6-2.7-.4-.6-.8-1.3-1.2-1.9,0,0-.2-.1-.3-.2-2-.6-3.6-1.9-5.3-3-.4-.3-.8-.5-1.1-.8-.5-.4-1.1-.4-1.6,0,1,1.9,1.9,3.9,2.9,5.8.2.3.5.6.8.8.9.6.9,2.1,0,2.9-1.3,1.3-2.6,2.5-3.9,3.7-.6.5-1.3.9-1.9,1.3-.1,0-.4.1-.5,0-.7-.4-1.7,0-2.4-.7-.4-.4-.8-.7-1.1-1.1-.1-.2,0-.6.2-.8.2-.3.5-.6.8-.7,1.4-.6,1.5-2,2.2-3.1.2-.2,0-.9-.2-1.2-1-1.2-2.1-2.3-3.1-3.6-.8-1-1.5-2-2.1-3.1-.3-.6-.5-1-1.2-1.2-.3.1-.5.4-.5.9,0,1.2,0,2.5-.2,3.8-.3,3.2-1.7,5.6-5,6.8-.8.3-1.5,1.1-2,1.9s-.9,1.6-2,1.8c-.2,0-.5.6-.5.9s.2.7.3,1c.4,1.4,0,2.2-1.4,2.6-1.1.3-2.2.4-3.3.4-1.6,0-1.8.4-1.3,1.9,2.1,5.9,3.8,11.8,4.7,18,1.2,7.9.7,15.7.2,23.6-.5,7.8-.6,15.6.3,23.4-18.5-4.5-39-4.1-48.7-3.6,2.8-8.4,4.8-16.9,6-25.7.7-5,1.9-10,4.1-14.7,1.5-3,3.1-5.9,4.6-8.9.8-1.7,1.8-3.3.6-5.3-3.3-5.6-5.1-11.6-6.5-17.9,0-.2-.1-.4-.3-.7-.2.6-.3.9-.4,1.2-1.3,3.7-1.4,7.5-1.8,11.4-.3,2.8-.5,5.6-.9,8.4-.2,1.8-.9,3.4-2.4,4.9v-1.4c.3-3.4-.3-6.5-2.4-9.3-2-2.7-4-5.5-5.7-8.5-4.6-8.5-7.3-17.5-5.8-27.4.5-3.4,1.1-6.7,2.5-9.9,2.1-4.9,5.3-8.6,10.6-10.4,2.4-.8,4.6-2,6.8-3.1,1.3-.6,1.6-.6,1.9.8.3,1.4.5,2.8.7,4.1.1.9.5,1.6,1.5,1.9.5.1,1.1.2,1.4.5,1,1.3,2.4,1.3,3.8,1.3s1.8.5,1,1.7c-.3.6-.5,1,.1,1.5.2.2.3.7.2,1-.3,1-.1,1.4.8,1.6.3,0,.7.4.7.6,0,.9.5,1.2,1.1,1.6.9.6,1,1.2.3,2-.8,1-1.7,1.9-2.3,2.7.6,1,1.4,1.7,1.6,2.7.8,3.7,3.8,4.8,6.6,6.1,1.3.6,2.8.8,4.3.9,2.1.2,4.3.2,6.4,0,1.7-.1,3-1.2,3.9-2.7,1.3-2.2,1.6-4.7,2-7.2.6-3.7-.4-7-1.8-10-1.1,2.4-2,5.1-3.4,7.5-1.2,2.2-2.9,4.3-4.3,6.4-.4.6-.8,1.2-1.6,1.1h0s-.1.2-.1.3c-.2.4-.3,1.2-.3,2.3s0,.7-.1.9c-.1.2-.4.2-.6,0-.3-.2-.7-.7-.4-1.5,0,0-.5-2.1-1.3-1.2s0,2.3-.2,2.9-.8.2-.8.2c-.1-.1-.3-.9-.5-.5s-.5.3-.5.3c-.7-.3-.9-2.8-.9-2.8,0-1.4,1.3-2.8,1.9-3.4h0l-.6-.4c-.4.9-1.3,1.9-2.3,2.2-.6.1-.6-.2-.5-.6s.4-.7.7-1c.4-.3.7-.8.4-1.3-.6-1-1.5,1.8-1.5,1.8-.4,2-1.3,1.2-1.3,1.2-.2-.2-.1-.7-.1-.7-1.5.5-.6-2-.6-2,.2-.7.6-1.3,1.2-1.8l-.5-.2c1.2-1.1,2.4-2.2,3.8-3.1,2.6-1.7,4.8-3.7,6.2-6.6,1.1-2.5,2.7-4.8,4-7.2.3-.6.4-1.2.5-1.9-.8.8-1.6,1.4-2.7,1.1-1.1-.3-1.8-.8-1.1-2.4-1.2.8-2,1.2-2.5,0-1.1.5-1.5.3-1.6-.9v-1.5c0-.3-.1-.6-.4-.7-.6-.5-1.3-.8-2-1.2-.4.3-.7.5-1,.7-.1-.6-.3-1.2-.3-1.7,0-1.3.3-2.6.3-3.9.1-5,3.4-10.7,9.1-10.2h.1c-.1-.6-.3-1.1-.4-1.6h.2c.4.5.9,1,1.3,1.5.2-.5.4-.9.6-1.4.3,1.3.9,2.3,2,2.9,1.9,1.1,3.2,2.8,3.6,4.9.5,2.2.6,4.5,1,6.9.7.5,1.6,1.1,2.4,1.8,1,.8,2,1.6,3.1,2.4.3.2.9.3,1.2.2,1.5-.6,2.8-.4,3.9.7.6.6,1.2,1.3,1.8,2,1.1,1.2,2.1,2.7,3.4,3.6,3.5,2.4,6.2,5.4,8.2,8.9h0c1,1.6,2.4,4,3.3,6.1.3.6.5,1.2.7,1.7h0c0,.4.1.7.3,1,0,.3.1.6.1.9s-.4.4-.7.6c-.2.1-.4.4-.6.6.2.2.4.5.6.6.8.5,1.4,1.2,1.5,2.1,0,1,.6,1.6,1.1,2.1,1.3,1.3,2.5,2.7,3.9,3.9.6.5,1.2,1,2,1.1,1,0,1.8,1.1,1.7,2.2h0l.2.3h0Z"/>
    <g>
      <g>
        <path d="M1947.9,271.7c6.3,9.1,11.5,23.9,15.9,41.7h-18.9c-5.3-16.4-10.3-27.7-13.3-34-1.4-2.8,0-6.4,2.5-7l10.4-2.2c1.2-.3,2.5.2,3.3,1.4h0Z"/>
        <path d="M1962.3,307.7l6.5,20.1h-21s0-8.2-6.7-25.7l21.2,5.6h0Z"/>
      </g>
      <path d="M2262.2,306.9c-10,38.4-26.9,143.8-30.5,166.7-.4,2.5-2.3,4.1-4.2,3.7-40.8-9.1-80.5-6.5-116,1.8-8.7,2-17.2,4.4-25.4,7-47.3,15.1-84.9,38.3-104.3,51.9-6.2,4.3-13.7-1.7-13.3-10.7.7-14.9.9-29.1.8-42.7l-.9-20.7,15.3.9.6,21.6c.3,5.1.5,9.5.6,12.9.2,3.6,3.3,5.6,5.6,3.7,19.2-16.1,48.5-26.8,80-33.7,13.2-2.9,26.8-5.2,40.2-7,48.8-6.5,94.6-6.2,108.6-6,2.3,0,4-2.5,3.7-5.4-8.9-74.2,5.4-133.5,9.6-148.8.6-2.2,2.4-3.5,4.3-3,7.3,2.1,25.2,7.2,25.2,7.7h0Z"/>
    </g>
    <path class="st1" d="M2216.4,143.7c-6.9.2-11.9-3.1-11.9-3.1-7,22.7-15.6,27.6-35.8,35.8,0,0,215.9,149.4-10.8,352.6.8-1.5,259.2-96.8,110-342.4l-9.1,11.6-2.3-4.9c-10.7-22.6-32.3-42.9-40.1-49.7h0Z"/>
    <path class="st20" d="M2267.8,186.6l-9.1,11.6c-12.9-31.1-42.4-54.5-42.4-54.5-5.6.6-11.9-3.1-11.9-3.1,54.5,45.3,72.5,126.7,72.5,126.7,14.9,98-44.5,182.8-84.7,227.7-10.1,11.2-21.5,22.5-34.4,34,.7-.3,1.3-.6,2-.9,7.3-3.3,34.5-15,64-36.8h0c15.1-10.7,22.6-17.8,22.6-17.8,146.2-133.4,21.4-286.8,21.4-286.8h0Z"/>
    <g>
      <g>
        <path class="st24" d="M2069,113.7s-38.7-20.2-68.2,21.1c0,0,36.2,23.2,68.2-21.1Z"/>
        <path class="st33" d="M2000.7,134.8s51.8,1.2,68.2-21.1c0,0-25.5,42.4-68.2,21.1Z"/>
      </g>
      <g>
        <path class="st24" d="M2094.5,118.5s-35.6,1.2-45.6,47.7c0,0,46-4.9,45.6-47.7Z"/>
        <path class="st33" d="M2049,166.3s45.8-31,45.5-45.2c0,0,3.8,37-45.5,45.2Z"/>
      </g>
      <g>
        <path class="st24" d="M2092.7,163.4s11.4-50.4,58.4-42.8c0,0-5.3,37.4-58.4,42.8Z"/>
        <path class="st33" d="M2092.7,163.4s53.6-25.3,58.4-42.8c0,0-5,37.7-58.4,42.8Z"/>
      </g>
      <g>
        <path class="st24" d="M2135.4,169.3s45.5,8,62.4-31.7l-28.9-6.3s-21,8.7-33.4,38h-.1Z"/>
        <path class="st33" d="M2135.4,169.3s54-16.4,62.4-31.7c0,0-10.9,37.4-62.4,31.7Z"/>
      </g>
      <g>
        <path class="st24" d="M2052.9,79.5s19.4,43.6,61.2,26.7c0,0-15.2-40.5-61.2-26.7Z"/>
        <path class="st33" d="M2057.8,87.8s38.6,25.2,56.3,18.3c0,0-31,17.1-56.3-18.3Z"/>
      </g>
      <g>
        <path class="st24" d="M2102.2,59.2s14,56.2,62.3,54.4c0,0-9.5-57.1-62.3-54.4Z"/>
        <path class="st33" d="M2105.9,69.7s40.8,46.3,58.7,43.8c0,0-37.1,6.2-58.7-43.8Z"/>
      </g>
      <g>
        <path class="st24" d="M2259.1,191.7l6.1-8.6s-21.4-40.8-46.9-55.3c-2.5-17.6-13.4-53.1-60.7-55.9,0,0,6.7,51.6,61.4,65.7h0c8.6,7.3,27.4,27.1,40.1,54.1h0Z"/>
        <path class="st33" d="M2157.5,71.9s34.8,64.6,61.2,60.8l20.9,27.4-20.7-22.5s-49-8.6-61.4-65.7h0Z"/>
      </g>
    </g>
    <g>
      <path class="st3" d="M1885.8,287.6s86.1-29.7,142.9-5.9l-87.9-158.1-54.9,164.1h0Z"/>
      <path class="st5" d="M2085.6,253c.3-.5,21.3-42.8,21.3-42.8,0,0,2.6,37.5,49.8,76.2l-71-33.4h-.1Z"/>
      <polygon class="st21" points="2157.8 271.2 2168.8 219.6 2195.3 301.7 2157.8 271.2"/>
      <path class="st16" d="M1942.6,124s-57,95.7,69.5,144.8l-69.5-144.8h0Z"/>
      <path class="st4" d="M2107.4,204.3s-22.3,74.8,53,82.6l-53-82.6h0Z"/>
      <path class="st29" d="M2168.2,218.1s-4.7,54,26.5,83.8l-26.5-83.8h0Z"/>
      <path d="M2277.7,336.5c-1.6.1-3.4.2-5.2.3h.8c1.7,0,3.3-.2,4.8-.3h-.4ZM2169.8,227.9c-.3-.6-.8-.9-1.4-.8-.1,0-.3,0-.4.2-.3.2-.6.6-.7,1-.2.8-.5,1.8-.5,2l-6.8,37.3.2.2c7.9,9.1,16.1,17.5,24.3,25.1,1.5,1.3,2.9,2.7,4.4,3.9h.1c.2,0,.3,0,.5.1.2,0,.4,0,.7.1.6,0,1.2.2,1.7.3h.7c0,.1-22.3-68.1-22.3-68.1-.1-.4-.3-.9-.6-1.4h.1ZM2189.7,296.5h-.6c-10.4-9.1-20-19-28.7-29l6.7-37c0-.2.3-1.1.5-1.9,0-.2.2-.4.3-.5.4-.4,1.1-.4,1.4.2.2.4.4.9.6,1.3l22,67.4c-.8-.1-1.6-.3-2.3-.4h.1ZM2156.9,286c-3.2-2.4-6.2-4.8-9.1-7.3-21-18.1-34.9-39.2-41.5-63.1,0-.4-.4-.6-.7-.6h-.4c-.1,0-.3.2-.4.4l-17,34.8.4.2c10.4,6.6,20.3,12.5,29.6,17.7.2.1.4.2.6.3,12.9,7.2,24.9,13,36.1,17.6.7.3,1.3.6,2,.8l3.5,1.4-2.4-1.8-.7-.6h0v.2h0ZM2126.6,272.3c-3.1-1.7-6.4-3.4-9.7-5.3-8.8-4.9-18.2-10.5-28.4-17l16.6-34v-.3c.3-.3.7-.3.8,0,8.7,31.8,29.5,54.7,50.7,70.6-9-3.6-18.9-8.3-30-14.1h0Z"/>
      <g>
        <path d="M1888,290.8c-1,0-1.8-.7-2.2-1.8-.4-1.4.3-2.8,1.5-3.3.2,0,22.5-8.4,51.7-13.5,27.1-4.8,66-7.8,97.2,4.9,1.2.5,1.8,2,1.4,3.3-.4,1.4-1.7,2.1-2.9,1.6-58.2-23.7-145.2,8.4-146,8.7-.2,0-.5.1-.7.1h0Z"/>
        <path d="M1888,292c-1.5,0-2.9-1.1-3.3-2.7-.6-2,.4-4.1,2.2-4.8.2,0,22.6-8.4,52-13.6,27.3-4.8,66.4-7.9,97.9,5,1.8.7,2.7,2.8,2.1,4.8-.3,1-1,1.8-1.9,2.3-.8.4,12.6,5.4,11.8,5-57.7-23.5-158.7,3.4-159.5,3.7-.4.1-.7.2-1.1.2h-.2,0ZM1983.3,269.3c-15.9,0-31.3,1.9-44.1,4.1-28.9,5.1-51.3,13.4-51.5,13.5-.6.2-.9,1.1-.7,1.8.2.6.8,1,1.2.9.9-.3,88.3-32.5,146.9-8.7h.6c.3-.1.5-.4.6-.8.2-.7,0-1.6-.7-1.8-16.3-6.6-34.8-9-52.5-9h.2Z"/>
      </g>
      <path d="M2300.8,324h0c-1.5-1.1-3.2-1.9-4.9-2.6-59.4-23.7-96.1-67.1-113.3-91.9-.4-.4-.7-.9-1.1-1.3-1.8-2.2-3.7-4.6-5.6-7-2-2.6-4-5.2-5.7-8.1h0c-.6-1.1-1.6-2.9-2.8-2.6-.7.2-1,1.2-1.1,1.9v.2c-.3.7-.4,1.4-.6,2.1,0,.3-.1.6-.2.8-.4,1.8-.8,3.6-1.3,5.5l-.3,1.3c-.8,3.4-1.6,6.8-2.4,10.2-1,4-1.9,8-2.8,11.9l-2.7,11.4c-.4,1.5-.7,2.9-1.1,4.4-28.5-34.4-45.9-67.6-49.1-73.9-.1-.3-.5-.5-.8-.5s-.6.3-.7.6l-21,59.8c-16-10.3-33.6-22.5-52.1-36.1l-.6-.5v.5c-38.5-31.9-70-68.4-93.5-108.4-.2-.3-.5-.5-.8-.4s-.6.3-.6.6l-51,184.7v.5c-.3.5,0,1,.4,1.2,0,0,.3,0,.6-.2.4-.2,1-.6,1.7-1h0c1.3-.8,2.7-1.9,3.4-2.5.3-.3.5-.5.5-.6l.3-1.1,38.5-120.3,9.5-29.5c3.4,10.9,29.5,91.8,71.8,134.8h0l1.5,1.5c.5.5,1.1,1,1.6,1.5.6.5,1.1,1.1,1.7,1.6,1.4,1.3,2.8,2.5,4.3,3.8.7.6,1.5,1.2,2.3,1.8,1.2,1,2.5,1.9,3.7,2.8q.1.1,0,0c.2.1.4.3.6.4.4.3.8.6,1.2.8h.2c103.1,31.9,171.1,46.7,215.9,52.4,7.1.9,13.6,1.6,19.6,2.1,3,.1,5.9.2,8.4,0,1.8,0,3.6-.1,5.2-.3,1.2,0,2.4-.2,3.5-.4.3,0,.6,0,.8-.1.8-.1,1.6-.2,2.4-.4.3,0,.5,0,.7-.1,1-.2,1.9-.4,2.8-.6.2,0,.4-.1.6-.2.5-.1.9-.2,1.3-.4.4-.1.8-.2,1.2-.4.6-.2,1.1-.4,1.6-.6h0c.3-.1.7-.3,1-.4.5-.2,1-.4,1.4-.6l.4-.2c.9-.4,1.6-.9,2.3-1.3.3-.2.6-.4.9-.6.4-.3.7-.5,1-.8.4-.3.7-.6,1-.9.1-.1.2-.3.4-.4.3-.4.6-.7.9-1.1,0,0,.1-.2.2-.3,0,0,.1-.2.2-.3.4-.6.5-1,.5-1l-2-1.4h0v.2h.1ZM2156.5,286.9c-.7-.3-1.3-.6-2-.8h0c-11.2-4.6-23.1-10.5-36-17.6h-.1c-.2,0-.3-.2-.5-.3-9.3-5.2-19.2-11.1-29.6-17.7l-.4-.2,17-34.8c0-.2.2-.3.4-.4h.4c.3,0,.6.3.7.6,6.5,23.8,20.5,45,41.5,63.1h0c2.9,2.5,5.9,4.9,9.1,7.3l.7.6h0l2.4,1.8-3.5-1.4h0v-.2h0ZM2189.1,296.9h-.2c-1.4-1.4-2.9-2.7-4.3-4h0c-8.2-7.5-16.4-15.9-24.3-25.1l-.2-.2,6.8-37.3c0-.2.3-1.2.5-2,.1-.5.4-.8.7-1h0c.1,0,.3-.1.4-.2.6,0,1.1.2,1.4.8.3.5.5,1,.6,1.4l22.3,68.2h-.7c-.6-.2-1.1-.3-1.7-.4h0c-.2,0-.4,0-.7-.1h-.6Z"/>
    </g>
  </g>
  <g class="st32">
    <image width="216" height="199" transform="translate(3085 220.9)" xlink:href="Logo Bawah-1.png"/>
  </g>
  <g>
    <path class="st8" d="M3210,257.7h-52.4c-19.8,0-35.8,16-35.8,35.8v52.4c0,19.8,16,35.8,35.8,35.8h52.4c19.8,0,35.8-16,35.8-35.8v-52.4c0-19.8-16-35.8-35.8-35.8h0ZM3234.4,346.8h0c0,13.1-10.6,23.7-23.7,23.7h-53.6c-13.1,0-23.7-10.6-23.7-23.7v-53.6c0-13.1,10.6-23.7,23.7-23.7h53.6c13.1,0,23.7,10.6,23.7,23.7v53.6Z"/>
    <path class="st8" d="M3183.8,287.8c-17.8,0-32.2,14.4-32.2,32.2s14.4,32.2,32.2,32.2,32.2-14.4,32.2-32.2-14.4-32.2-32.2-32.2h0ZM3183.8,340.9h0c-11.5,0-20.8-9.3-20.8-20.8s9.3-20.8,20.8-20.8,20.8,9.3,20.8,20.8-9.3,20.8-20.8,20.8Z"/>
    <path class="st8" d="M3217,279.1c-4.1,0-7.5,3.4-7.5,7.5s3.4,7.5,7.5,7.5,7.5-3.4,7.5-7.5-3.4-7.5-7.5-7.5Z"/>
  </g>
</svg>